<svg id="レイヤー_1" data-name="レイヤー 1" xmlns="http://www.w3.org/2000/svg" width="73mm" height="32mm" viewBox="0 0 206.93 90.71">
  <defs>
    <style>
      .cls-1 {
        fill: #040000;
      }

      .cls-2 {
        fill: #f2d623;
      }
    </style>
  </defs>
  <title>イラスト素材</title>
  <g>
    <g>
      <path class="cls-1" d="M70.48,26.91V38H65.7V67.13H60.6V61.51a11.57,11.57,0,0,1-18.08-9.62A11.58,11.58,0,0,1,54.14,40.33a11.13,11.13,0,0,1,6.46,2V38H35.48V26.91H60.6V22.76h5.1v4.15ZM59.21,55.37a4.73,4.73,0,0,0,1.43-3.47A4.9,4.9,0,0,0,55.78,47a4.73,4.73,0,0,0-3.47,1.43,4.67,4.67,0,0,0-1.43,3.42,4.89,4.89,0,0,0,4.91,4.91A4.67,4.67,0,0,0,59.21,55.37Z"/>
      <path class="cls-1" d="M75.33,54.81c-2.33-2.76-4.19-4.66-3-8C73.36,43.84,85,24,85,24H95.84S82.73,46.68,82.4,47.58c-.72,1.94.14,3.16,1.31,5.56l7,14H85.4Zm21.84-3.92a4.39,4.39,0,1,1-4.39-4.39A4.39,4.39,0,0,1,97.16,50.89Zm-1.05-9.42a3.34,3.34,0,1,1-3.34-3.34A3.34,3.34,0,0,1,96.11,41.47Z"/>
      <polygon class="cls-1" points="113.37 28 113.37 22.77 104.83 22.77 104.83 28 100.31 28 100.31 32.67 104.83 32.67 104.83 67.13 113.37 67.13 113.37 32.67 128.1 32.67 128.1 28 113.37 28"/>
      <path class="cls-1" d="M168.42,35.27V25.83h-8.88V22.76h-5.1v3.06H138.5v9.44h15.94v2.8H138.5v5.1h15.94V47h-5.1c-10.76,0-13,2.52-13,9q0,5.88,3.42,9.3a11.86,11.86,0,0,0,16.37-.23,11.08,11.08,0,0,0,3.37-7.42h8.06V47h-8V43.17h6.83v-5.1h-6.83v-2.8ZM152.54,61.48A6.21,6.21,0,0,1,148,63.38a5.81,5.81,0,0,1-4.59-1.68c-1.67-1.91-.54-4,1.66-4h9.34A6.2,6.2,0,0,1,152.54,61.48Z"/>
    </g>
    <path class="cls-1" d="M116.66,37.17V48.11h11.4v4.16h0c2.82,0,5.1-1.86,5.1-4.16V37.17Z"/>
    <path class="cls-2" d="M59.21,55.37a4.73,4.73,0,0,0,1.43-3.47A4.9,4.9,0,0,0,55.78,47a4.73,4.73,0,0,0-3.47,1.43,4.67,4.67,0,0,0-1.43,3.42,4.89,4.89,0,0,0,4.91,4.91A4.67,4.67,0,0,0,59.21,55.37Z"/>
    <polygon class="cls-1" points="121.31 61.24 121.31 56.95 116.27 56.95 116.27 66.28 132.77 66.28 132.77 61.24 121.31 61.24"/>
  </g>
</svg>
