<svg id="レイヤー_1" data-name="レイヤー 1" xmlns="http://www.w3.org/2000/svg" xmlns:xlink="http://www.w3.org/1999/xlink" width="73mm" height="32mm" viewBox="0 0 206.93 90.71">
  <defs>
    <style>
      .cls-1 {
        fill: none;
      }

      .cls-2 {
        clip-path: url(#clip-path);
      }

      .cls-3 {
        fill: #fff000;
      }

      .cls-4 {
        fill: #ffbc00;
      }

      .cls-5 {
        fill: #ff9700;
      }

      .cls-6 {
        fill: #fff;
      }

      .cls-7 {
        clip-path: url(#clip-path-2);
      }

      .cls-8 {
        clip-path: url(#clip-path-3);
      }
    </style>
    <clipPath id="clip-path">
      <path class="cls-1" d="M65.76,49.47c0,9-12.06,16.33-26.94,16.33S11.87,58.49,11.87,49.47V42.15H65.76Z"/>
    </clipPath>
    <clipPath id="clip-path-2">
      <path class="cls-1" d="M129.58,49.47c0,9-12.06,16.33-26.94,16.33S75.69,58.49,75.69,49.47V42.15h53.89Z"/>
    </clipPath>
    <clipPath id="clip-path-3">
      <path class="cls-1" d="M193.4,49.47c0,9-12.06,16.33-26.94,16.33s-26.94-7.31-26.94-16.33V42.15H193.4Z"/>
    </clipPath>
  </defs>
  <title>イラスト素材</title>
  <g>
    <g>
      <g class="cls-2">
        <path class="cls-3" d="M65.76,49.47c0,9-12.06,16.33-26.94,16.33S11.87,58.49,11.87,49.47V42.15H65.76Z"/>
        <path class="cls-4" d="M38.81,26.67C23.64,26.67,11.3,34,11.3,42.92S23.64,61.06,38.81,61.06s27.52-9.18,27.52-18.14S54,26.67,38.81,26.67Z"/>
        <g>
          <rect class="cls-4" x="20.84" y="37.32" width="2.66" height="29.58"/>
          <rect class="cls-4" x="14.18" y="37.32" width="2.66" height="29.58"/>
          <rect class="cls-4" x="27.5" y="37.32" width="2.66" height="29.58"/>
          <rect class="cls-4" x="34.15" y="37.32" width="2.66" height="29.58"/>
          <rect class="cls-4" x="40.81" y="37.32" width="2.66" height="29.58"/>
          <rect class="cls-4" x="47.47" y="37.32" width="2.66" height="29.58"/>
          <rect class="cls-4" x="54.13" y="37.32" width="2.66" height="29.58"/>
          <rect class="cls-4" x="60.79" y="37.32" width="2.66" height="29.58"/>
        </g>
      </g>
      <g>
        <ellipse class="cls-3" cx="38.81" cy="42.15" rx="26.94" ry="17.17"/>
        <g>
          <ellipse class="cls-4" cx="38.81" cy="42.15" rx="21.71" ry="13.84"/>
          <path class="cls-5" d="M39.43,28.94c7.41,0,13.94,2.36,17.86,6-3.82-4-10.66-6.59-18.48-6.59-12,0-21.71,6.19-21.71,13.84A10.75,10.75,0,0,0,21,50a10.43,10.43,0,0,1-3.24-7.24C17.72,35.13,27.44,28.94,39.43,28.94Z"/>
        </g>
        <path class="cls-5" d="M58,42.51l-5.33-2.84a1,1,0,0,0-.69-.1L39.41,42.42l4.46-8c.09-.15.16-.71,0-.83l-5.41-3a1,1,0,0,0-.94,0L19.73,41.46c-.26.16-.16.86.1,1l4.52,2.88a1,1,0,0,0,.94,0l10.27-6.54-3.3,5.41c-.09.15-.1.78.09.9l2.57,1.64a1,1,0,0,0,.7.1l9.23-2.16-10.32,6a.94.94,0,0,0,0,1.14l4.76,3a1,1,0,0,0,.94,0L57.91,43.63C58.17,43.47,58.23,42.68,58,42.51Z"/>
        <path class="cls-3" d="M57.86,42.43l-5.27-3.36a1,1,0,0,0-.69-.1L39.35,41.82l4.46-8a.32.32,0,0,0-.16-.44L38.38,30a1,1,0,0,0-.94,0L19.77,41.28a.33.33,0,0,0,0,.6l4.52,2.88a1,1,0,0,0,.94,0L35.5,38.22l-3.37,5.87a.32.32,0,0,0,.15.44l2.57,1.64a1,1,0,0,0,.7.1l9.23-2.16L34.49,50.66a.33.33,0,0,0,0,.6l4.76,3a1,1,0,0,0,.94,0L57.86,43A.33.33,0,0,0,57.86,42.43Z"/>
        <path class="cls-6" d="M40.66,32.63S38.3,31,37.74,31.17s-5.65,3.48-5.65,3.48a36.12,36.12,0,0,1,5.68-2.53A4.66,4.66,0,0,1,40.66,32.63Z"/>
      </g>
    </g>
    <g>
      <g class="cls-7">
        <path class="cls-3" d="M129.58,49.47c0,9-12.06,16.33-26.94,16.33S75.69,58.49,75.69,49.47V42.15h53.89Z"/>
        <path class="cls-4" d="M102.64,26.67c-15.17,0-27.52,7.29-27.52,16.24s12.34,18.14,27.52,18.14,27.52-9.18,27.52-18.14S117.81,26.67,102.64,26.67Z"/>
        <g>
          <rect class="cls-4" x="84.66" y="37.32" width="2.66" height="29.58"/>
          <rect class="cls-4" x="78" y="37.32" width="2.66" height="29.58"/>
          <rect class="cls-4" x="91.32" y="37.32" width="2.66" height="29.58"/>
          <rect class="cls-4" x="97.98" y="37.32" width="2.66" height="29.58"/>
          <rect class="cls-4" x="104.64" y="37.32" width="2.66" height="29.58"/>
          <rect class="cls-4" x="111.3" y="37.32" width="2.66" height="29.58"/>
          <rect class="cls-4" x="117.96" y="37.32" width="2.66" height="29.58"/>
          <rect class="cls-4" x="124.61" y="37.32" width="2.66" height="29.58"/>
        </g>
      </g>
      <g>
        <ellipse class="cls-3" cx="102.64" cy="42.15" rx="26.94" ry="17.17"/>
        <g>
          <ellipse class="cls-4" cx="102.64" cy="42.15" rx="21.71" ry="13.84"/>
          <path class="cls-5" d="M103.26,28.94c7.41,0,13.94,2.36,17.86,6-3.82-4-10.66-6.59-18.48-6.59-12,0-21.71,6.19-21.71,13.84A10.75,10.75,0,0,0,84.78,50a10.43,10.43,0,0,1-3.24-7.24C81.54,35.13,91.26,28.94,103.26,28.94Z"/>
        </g>
        <path class="cls-5" d="M121.79,42.51l-5.33-2.84a1,1,0,0,0-.69-.1l-12.54,2.85,4.46-8c.09-.15.16-.71,0-.83l-5.41-3a1,1,0,0,0-.94,0L83.55,41.46c-.26.16-.16.86.1,1l4.52,2.88a1,1,0,0,0,.94,0l10.27-6.54-3.3,5.41c-.09.15-.1.78.09.9l2.57,1.64a1,1,0,0,0,.7.1l9.23-2.16-10.32,6a.94.94,0,0,0,0,1.14l4.76,3a1,1,0,0,0,.94,0l17.67-11.26C122,43.47,122,42.68,121.79,42.51Z"/>
        <path class="cls-3" d="M121.68,42.43l-5.27-3.36a1,1,0,0,0-.69-.1l-12.54,2.85,4.46-8a.32.32,0,0,0-.16-.44L102.2,30a1,1,0,0,0-.94,0L83.59,41.28a.33.33,0,0,0,0,.6l4.52,2.88a1,1,0,0,0,.94,0l10.27-6.54L96,44.09a.32.32,0,0,0,.15.44l2.57,1.64a1,1,0,0,0,.7.1l9.23-2.16L98.31,50.66a.33.33,0,0,0,0,.6l4.76,3a1,1,0,0,0,.94,0L121.68,43A.33.33,0,0,0,121.68,42.43Z"/>
        <path class="cls-6" d="M104.48,32.63s-2.36-1.66-2.92-1.46-5.65,3.48-5.65,3.48a36.12,36.12,0,0,1,5.68-2.53A4.66,4.66,0,0,1,104.48,32.63Z"/>
      </g>
    </g>
    <g>
      <g class="cls-8">
        <path class="cls-3" d="M193.4,49.47c0,9-12.06,16.33-26.94,16.33s-26.94-7.31-26.94-16.33V42.15H193.4Z"/>
        <path class="cls-4" d="M166.46,26.67c-15.17,0-27.52,7.29-27.52,16.24s12.34,18.14,27.52,18.14S194,51.88,194,42.92,181.63,26.67,166.46,26.67Z"/>
        <g>
          <rect class="cls-4" x="148.48" y="37.32" width="2.66" height="29.58"/>
          <rect class="cls-4" x="141.82" y="37.32" width="2.66" height="29.58"/>
          <rect class="cls-4" x="155.14" y="37.32" width="2.66" height="29.58"/>
          <rect class="cls-4" x="161.8" y="37.32" width="2.66" height="29.58"/>
          <rect class="cls-4" x="168.46" y="37.32" width="2.66" height="29.58"/>
          <rect class="cls-4" x="175.12" y="37.32" width="2.66" height="29.58"/>
          <rect class="cls-4" x="181.78" y="37.32" width="2.66" height="29.58"/>
          <rect class="cls-4" x="188.44" y="37.32" width="2.66" height="29.58"/>
        </g>
      </g>
      <g>
        <ellipse class="cls-3" cx="166.46" cy="42.15" rx="26.94" ry="17.17"/>
        <g>
          <ellipse class="cls-4" cx="166.46" cy="42.15" rx="21.71" ry="13.84"/>
          <path class="cls-5" d="M167.08,28.94c7.41,0,13.94,2.36,17.86,6-3.82-4-10.66-6.59-18.48-6.59-12,0-21.71,6.19-21.71,13.84A10.75,10.75,0,0,0,148.6,50a10.43,10.43,0,0,1-3.24-7.24C145.36,35.13,155.09,28.94,167.08,28.94Z"/>
        </g>
        <path class="cls-5" d="M185.61,42.51l-5.33-2.84a1,1,0,0,0-.69-.1l-12.54,2.85,4.46-8c.09-.15.16-.71,0-.83l-5.41-3a1,1,0,0,0-.94,0L147.37,41.46c-.26.16-.16.86.1,1L152,45.37a1,1,0,0,0,.94,0l10.27-6.54-3.3,5.41c-.09.15-.1.78.09.9l2.57,1.64a1,1,0,0,0,.7.1l9.23-2.16-10.32,6a.94.94,0,0,0,0,1.14l4.76,3a1,1,0,0,0,.94,0l17.67-11.26C185.82,43.47,185.87,42.68,185.61,42.51Z"/>
        <path class="cls-3" d="M185.5,42.43l-5.27-3.36a1,1,0,0,0-.69-.1L167,41.82l4.46-8a.32.32,0,0,0-.16-.44L166,30a1,1,0,0,0-.94,0L147.41,41.28a.33.33,0,0,0,0,.6l4.52,2.88a1,1,0,0,0,.94,0l10.27-6.54-3.37,5.87a.32.32,0,0,0,.15.44l2.57,1.64a1,1,0,0,0,.7.1l9.23-2.16-10.29,6.56a.33.33,0,0,0,0,.6l4.76,3a1,1,0,0,0,.94,0L185.5,43A.33.33,0,0,0,185.5,42.43Z"/>
        <path class="cls-6" d="M168.3,32.63s-2.36-1.66-2.92-1.46-5.65,3.48-5.65,3.48a36.12,36.12,0,0,1,5.68-2.53A4.66,4.66,0,0,1,168.3,32.63Z"/>
      </g>
    </g>
  </g>
</svg>
