<svg id="レイヤー_1" data-name="レイヤー 1" xmlns="http://www.w3.org/2000/svg" width="73mm" height="32mm" viewBox="0 0 206.93 90.71">
  <defs>
    <style>
      .cls-1 {
        fill: #171c61;
      }

      .cls-2 {
        fill: #fff;
      }

      .cls-3 {
        fill: #595757;
      }
    </style>
  </defs>
  <title>イラスト素材</title>
  <g>
    <rect class="cls-1" x="8.15" y="38.28" width="20.37" height="20.37"/>
    <rect class="cls-2" x="5.44" y="51.57" width="18.47" height="1.09" transform="translate(-32.55 25.64) rotate(-45)"/>
    <g>
      <path class="cls-1" d="M45.5,43.58a2.5,2.5,0,0,1,1,2.29v9.28h-3V45.87h-3v9.28h-3V45.87h-3v9.28h-3V43.26H44.47A1.8,1.8,0,0,1,45.5,43.58Z"/>
      <path class="cls-3" d="M56,47.67a3.12,3.12,0,0,1,.15,1v6.81h-2.2V52.05H49.57v3.41H47.39V48.65a3.17,3.17,0,0,1,.21-1,1.27,1.27,0,0,1,1.26-.94h5.81A1.34,1.34,0,0,1,56,47.67Zm-2,2.46V48.65H49.57v1.49Z"/>
      <path class="cls-3" d="M63.37,50.11V48.62H59v6.84H56.8V46.69h7.31a1.32,1.32,0,0,1,.76.24,1.84,1.84,0,0,1,.71,1.69v1.49a2.65,2.65,0,0,1-.18.95,1.36,1.36,0,0,1-1.29,1H63l2.56,3.41H62.46l-2-2.67V50.11Z"/>
      <path class="cls-3" d="M66.26,46.69h2.18v8.76H66.26Zm5.48,4.36,3.3,4.4H71.92l-3.27-4.4,3.27-4.36H75Z"/>
      <path class="cls-3" d="M77.87,48.65v1.49h4.37v1.92H77.87v1.45h6.57v2H77.16a1.39,1.39,0,0,1-1.28-1,3.32,3.32,0,0,1-.18-.94V48.65a3.17,3.17,0,0,1,.21-1,1.27,1.27,0,0,1,1.26-.94h7.28v1.92Z"/>
      <path class="cls-3" d="M93.88,48.62h-3.3v6.84H88.4V48.62H85.1V46.69h8.78Z"/>
      <path class="cls-3" d="M97.46,48.62V53.5h.73v2H94.54v-2h.74V48.62h-.74V46.69h3.65v1.93Z"/>
      <path class="cls-3" d="M105,55.46,101,50.21v5.25H98.84V46.69h2.64l3.93,5.25V46.69h2.21v8.76Z"/>
      <path class="cls-3" d="M114.83,53.51V52.05h-2.18V50.13H117v3.37a2.71,2.71,0,0,1-.18,1,1.35,1.35,0,0,1-1.29,1h-5.81a1.39,1.39,0,0,1-1.28-1,3.32,3.32,0,0,1-.18-.94V48.65a3.17,3.17,0,0,1,.21-1,1.27,1.27,0,0,1,1.26-.94H117v1.92h-6.57v4.86Z"/>
      <path class="cls-1" d="M130.65,44.58a4.23,4.23,0,0,1,.21,1.32v9.24h-3V50.53h-5.93v4.62h-3V45.91a4.3,4.3,0,0,1,.28-1.32A1.73,1.73,0,0,1,121,43.31h7.89A1.81,1.81,0,0,1,130.65,44.58Zm-2.78,3.34v-2h-5.93v2Z"/>
      <path class="cls-3" d="M140.53,46.69v6.8a2.71,2.71,0,0,1-.18,1,1.36,1.36,0,0,1-1.29,1h-5.84a1.39,1.39,0,0,1-1.29-1,3.32,3.32,0,0,1-.18-.94v-6.8h2.18v6.8h4.39v-6.8Z"/>
      <path class="cls-3" d="M150,48.62h-3.3v6.84h-2.18V48.62h-3.3V46.69H150Z"/>
      <path class="cls-3" d="M159.4,46.69v8.76h-2.21V52h-4.39v3.41h-2.18V46.69h2.18v3.41h4.39V46.69Z"/>
      <path class="cls-3" d="M168.13,46.93a1.84,1.84,0,0,1,.71,1.69V53.5a2.71,2.71,0,0,1-.18,1,1.35,1.35,0,0,1-1.29,1h-5.84a1.39,1.39,0,0,1-1.29-1,3.32,3.32,0,0,1-.18-.94V48.62a2,2,0,0,1,.76-1.72,1.3,1.3,0,0,1,.71-.21h5.84A1.32,1.32,0,0,1,168.13,46.93Zm-1.5,6.56V48.62h-4.39V53.5Z"/>
      <path class="cls-3" d="M176.09,50.11V48.62H171.7v6.84h-2.18V46.69h7.31a1.32,1.32,0,0,1,.76.24,1.84,1.84,0,0,1,.71,1.69v1.49a2.65,2.65,0,0,1-.18.95,1.36,1.36,0,0,1-1.29,1h-1.09l2.56,3.41h-3.12l-2-2.67V50.11Z"/>
      <path class="cls-3" d="M181.9,48.62V53.5h.73v2H179v-2h.74V48.62H179V46.69h3.65v1.93Z"/>
      <path class="cls-3" d="M192.07,48.62h-3.3v6.84h-2.18V48.62h-3.3V46.69h8.78Z"/>
      <path class="cls-3" d="M202.39,46.69l-3.73,5v3.79h-2.21V51.67l-3.73-5h3.09l1.75,2.3,1.73-2.3Z"/>
    </g>
  </g>
</svg>
