<svg id="レイヤー_1" data-name="レイヤー 1" xmlns="http://www.w3.org/2000/svg" width="73mm" height="32mm" viewBox="0 0 206.93 90.71">
  <defs>
    <style>
      .cls-1 {
        fill: #120605;
      }

      .cls-2 {
        fill: #fcd83f;
      }
    </style>
  </defs>
  <title>イラスト素材</title>
  <g>
    <g>
      <path class="cls-1" d="M39.21,39.39a2.38,2.38,0,0,0-.13-.81,1.58,1.58,0,0,0-.42-.63,2.18,2.18,0,0,0-.75-.44,4.74,4.74,0,0,0-1.14-.23.22.22,0,0,1-.21-.14.72.72,0,0,1-.07-.31.63.63,0,0,1,.07-.3.24.24,0,0,1,.23-.13h1q.69,0,1.42,0t1.3.12q.61.08.7.21L51.95,49.54c0,.05.1.07.19.05a.16.16,0,0,0,.14-.18V42.24q0-.47,0-1t0-1.05q0-.51-.07-1a3.46,3.46,0,0,0-.14-.72,2.58,2.58,0,0,0-.26-.62,1,1,0,0,0-.36-.35,1.57,1.57,0,0,0-.55-.17L50,37.29a.22.22,0,0,1-.21-.15.76.76,0,0,1-.07-.32.65.65,0,0,1,.07-.29A.22.22,0,0,1,50,36.4a12.86,12.86,0,0,1,1.37.08,14,14,0,0,0,1.48.08,12,12,0,0,0,1.37-.08,13.5,13.5,0,0,1,1.53-.08.27.27,0,0,1,.24.14.59.59,0,0,1,.08.31.55.55,0,0,1-.08.3.27.27,0,0,1-.24.13l-.76.08a1.2,1.2,0,0,0-.49.14,1.08,1.08,0,0,0-.35.34,4.32,4.32,0,0,0-.35.67,3.73,3.73,0,0,0-.2.88q-.07.56-.11,1.2t0,1.27q0,.64,0,1.12V54.51q0,.09-.22.16a1.61,1.61,0,0,1-.46.07,1.13,1.13,0,0,1-.27,0,.24.24,0,0,1-.17-.11L40.89,41a.31.31,0,0,0-.25-.08q-.18,0-.18.21v9.7a5.67,5.67,0,0,0,.15,1.48,1.46,1.46,0,0,0,1.22,1.15q.46.09,1.07.17a.3.3,0,0,1,.23.16.6.6,0,0,1,.07.29.55.55,0,0,1-.08.3.27.27,0,0,1-.24.13,10.28,10.28,0,0,1-1.29-.09,13.34,13.34,0,0,0-1.67-.09,15.5,15.5,0,0,0-1.79.09,11.63,11.63,0,0,1-1.32.09.26.26,0,0,1-.23-.14.58.58,0,0,1-.08-.31.57.57,0,0,1,.07-.28.31.31,0,0,1,.24-.16q.69-.08,1.16-.17a1.46,1.46,0,0,0,.75-.36,1.52,1.52,0,0,0,.4-.79,7.15,7.15,0,0,0,.12-1.47Z"/>
      <path class="cls-1" d="M62.87,47.59c-.09,0-.13,0-.14.09a1.58,1.58,0,0,0,0,.22A7.22,7.22,0,0,0,63,50.25,4.16,4.16,0,0,0,64,51.81a3.4,3.4,0,0,0,1.35.87,5.1,5.1,0,0,0,1.67.27,8.86,8.86,0,0,0,1.74-.17,3.93,3.93,0,0,0,1.55-.68q.21-.2.44.1t.07.48a4.94,4.94,0,0,1-1.93,1.53,7,7,0,0,1-2.63.43,7.37,7.37,0,0,1-2.78-.48,5.28,5.28,0,0,1-3.14-3.35,8,8,0,0,1-.38-2.53,6.9,6.9,0,0,1,.44-2.48,6.25,6.25,0,0,1,1.23-2,5.75,5.75,0,0,1,1.89-1.36,5.83,5.83,0,0,1,2.43-.5,5.18,5.18,0,0,1,2,.38,4.59,4.59,0,0,1,1.56,1.07,4.8,4.8,0,0,1,1,1.62,5.68,5.68,0,0,1,.36,2q0,.56-.4.56Zm4.88-.94a.49.49,0,0,0,.29-.07.37.37,0,0,0,.14-.2,1.11,1.11,0,0,0,0-.29q0-.16,0-.36a3.3,3.3,0,0,0-.18-1.07,3.07,3.07,0,0,0-.49-.92,2.4,2.4,0,0,0-.78-.64,2.2,2.2,0,0,0-1-.24,2.78,2.78,0,0,0-1.24.25,2.61,2.61,0,0,0-.86.68,3.15,3.15,0,0,0-.55,1,5.64,5.64,0,0,0-.27,1.16,2.32,2.32,0,0,0,0,.51c0,.13,0,.2.12.2Z"/>
      <path class="cls-1" d="M77.42,50.28a5.56,5.56,0,0,0,.33,2.21,1.22,1.22,0,0,0,1.22.72A3.5,3.5,0,0,0,80.14,53a3.26,3.26,0,0,0,.83-.4.21.21,0,0,1,.2,0,.62.62,0,0,1,.19.13.46.46,0,0,1,.12.2.22.22,0,0,1,0,.19,3.08,3.08,0,0,1-1.33,1.16,4.63,4.63,0,0,1-1.89.35,3.39,3.39,0,0,1-2.57-.81,3.65,3.65,0,0,1-.75-2.55V44.43a3.69,3.69,0,0,0,0-.5.35.35,0,0,0-.17-.26,1,1,0,0,0-.44-.1h-.86q-.09,0-.15-.19a1.3,1.3,0,0,1-.06-.39.78.78,0,0,1,.05-.3q.05-.13.16-.13a6,6,0,0,0,1.06-.22,1.92,1.92,0,0,0,.77-.46,2.29,2.29,0,0,0,.52-.85,6.66,6.66,0,0,0,.32-1.41q0-.17.26-.25a1.57,1.57,0,0,1,.5-.08,1.27,1.27,0,0,1,.4.06q.18.06.18.16V41.8a1.51,1.51,0,0,0,0,.49s.14.07.34.07h2.77a.22.22,0,0,1,.23.17,1.41,1.41,0,0,1,.05.41,1.25,1.25,0,0,1-.07.47.24.24,0,0,1-.25.15H77.66q-.2,0-.21.09a1.31,1.31,0,0,0,0,.21q0,.16,0,.46Z"/>
      <path class="cls-1" d="M87.24,39.75a5.22,5.22,0,0,0-.12-1.26,1.39,1.39,0,0,0-.4-.7,1.56,1.56,0,0,0-.73-.35,8.77,8.77,0,0,0-1.14-.15.29.29,0,0,1-.25-.15.55.55,0,0,1-.1-.31.49.49,0,0,1,.1-.3.3.3,0,0,1,.25-.13h1.83l1.27,0q.66,0,1.19.05t.9.1q.37.07.4.17l5.41,12.71a.13.13,0,0,0,.23,0l5.33-12.71q0-.1.68-.17t1.52-.1l1.76-.07,1.42,0a.24.24,0,0,1,.23.13.66.66,0,0,1,.07.3.57.57,0,0,1-.08.3.31.31,0,0,1-.22.16q-.9.16-1.4.29a1.25,1.25,0,0,0-.75.49,2.19,2.19,0,0,0-.29,1.05q-.05.7-.05,2v9.83a7,7,0,0,0,.1,1.37,1.42,1.42,0,0,0,.38.76,1.7,1.7,0,0,0,.79.39,9.68,9.68,0,0,0,1.31.2.35.35,0,0,1,.25.17.55.55,0,0,1,.09.3.49.49,0,0,1-.09.29.33.33,0,0,1-.29.13,19.18,19.18,0,0,1-2-.1,18.26,18.26,0,0,0-1.94-.1q-1,0-2.09.1t-2,.1a.27.27,0,0,1-.24-.13.51.51,0,0,1-.08-.29.58.58,0,0,1,.08-.3.33.33,0,0,1,.24-.17,9,9,0,0,0,1.32-.2,1.69,1.69,0,0,0,.77-.39,1.39,1.39,0,0,0,.38-.76,7.45,7.45,0,0,0,.1-1.37V41q0-.18-.21-.17a.26.26,0,0,0-.27.17l-3.84,9q-.4.94-.79,2t-.76,2.22a.2.2,0,0,1-.14.12.84.84,0,0,1-.51,0,.2.2,0,0,1-.14-.12L88.87,40.91a.26.26,0,0,0-.23-.17q-.18,0-.18.2v9.92a5.31,5.31,0,0,0,.16,1.48,1.69,1.69,0,0,0,.47.8,1.66,1.66,0,0,0,.76.36q.46.1,1.07.18a.27.27,0,0,1,.2.15.67.67,0,0,1,0,.58.23.23,0,0,1-.22.13,9,9,0,0,1-1.29-.1,11.67,11.67,0,0,0-1.67-.1,13.75,13.75,0,0,0-1.79.1,10.41,10.41,0,0,1-1.32.1.25.25,0,0,1-.21-.13.6.6,0,0,1-.1-.29.47.47,0,0,1,.07-.29.33.33,0,0,1,.25-.15q.69-.08,1.16-.18a1.5,1.5,0,0,0,.75-.36,1.53,1.53,0,0,0,.4-.8,7.27,7.27,0,0,0,.12-1.48Z"/>
      <path class="cls-1" d="M114.57,51.16q0,.66,0,1.12a1.87,1.87,0,0,0,.19.75,1.06,1.06,0,0,0,.49.46,3.1,3.1,0,0,0,.94.24.31.31,0,0,1,.21.14.46.46,0,0,1,.07.25.56.56,0,0,1-.07.27.23.23,0,0,1-.21.13l-.56,0-.7-.07-.78-.07-.8,0a14.93,14.93,0,0,0-1.67.09,14,14,0,0,1-1.56.09.21.21,0,0,1-.2-.12.54.54,0,0,1,0-.53.3.3,0,0,1,.21-.15,4.25,4.25,0,0,0,1.09-.23,1.13,1.13,0,0,0,.56-.44,1.51,1.51,0,0,0,.2-.7q0-.42,0-1V47q0-1.17-.05-1.85a2.69,2.69,0,0,0-.25-1,1,1,0,0,0-.57-.5,4.66,4.66,0,0,0-1-.21.19.19,0,0,1-.18-.12A.62.62,0,0,1,110,43a.66.66,0,0,1,.06-.27.19.19,0,0,1,.18-.13q.59,0,1.22-.12l1.19-.18,1-.16.5-.07q.33,0,.42.19a.8.8,0,0,1,.09.34Zm-1.41-11.8a1.74,1.74,0,0,1-1.16-.42,1.3,1.3,0,0,1-.47-1,1.42,1.42,0,0,1,.12-.58,1.36,1.36,0,0,1,.33-.46,1.59,1.59,0,0,1,.5-.31,1.72,1.72,0,0,1,.62-.11,1.42,1.42,0,0,1,.58.12,1.45,1.45,0,0,1,.46.32,1.48,1.48,0,0,1,.42,1,1.44,1.44,0,0,1-.1.55,1.41,1.41,0,0,1-.29.45,1.37,1.37,0,0,1-.44.31A1.4,1.4,0,0,1,113.17,39.36Z"/>
      <path class="cls-1" d="M121.61,40.85q0-1.16-.05-1.83a2.5,2.5,0,0,0-.27-1,1.1,1.1,0,0,0-.65-.51,6.38,6.38,0,0,0-1.22-.21.22.22,0,0,1-.2-.14.69.69,0,0,1-.07-.31.56.56,0,0,1,.06-.27.22.22,0,0,1,.21-.12q1-.09,1.69-.2l1.26-.2.86-.14a3.51,3.51,0,0,1,.49-.05.38.38,0,0,1,.31.12.38.38,0,0,1,.1.25v15q0,.68,0,1.13a1.52,1.52,0,0,0,.2.73,1.18,1.18,0,0,0,.55.44,4.5,4.5,0,0,0,1.08.27.28.28,0,0,1,.21.16.61.61,0,0,1,.06.27.49.49,0,0,1-.06.25.22.22,0,0,1-.21.11,12.9,12.9,0,0,1-1.44-.09,14.1,14.1,0,0,0-1.59-.09,15.21,15.21,0,0,0-1.68.09,15.24,15.24,0,0,1-1.68.09.23.23,0,0,1-.21-.12.5.5,0,0,1,0-.53.33.33,0,0,1,.23-.15,4.7,4.7,0,0,0,1.16-.23,1.16,1.16,0,0,0,.59-.44,1.51,1.51,0,0,0,.21-.7q0-.42,0-1Z"/>
      <path class="cls-1" d="M132.82,47.59q-.13,0-.14.09a1.58,1.58,0,0,0,0,.22,7.22,7.22,0,0,0,.33,2.35,4.15,4.15,0,0,0,.91,1.55,3.39,3.39,0,0,0,1.35.87,5.09,5.09,0,0,0,1.67.27,8.86,8.86,0,0,0,1.74-.17,3.93,3.93,0,0,0,1.55-.68q.21-.2.44.1t.07.48a4.94,4.94,0,0,1-1.93,1.53,7,7,0,0,1-2.63.43,7.37,7.37,0,0,1-2.78-.48,5.28,5.28,0,0,1-3.14-3.35,8,8,0,0,1-.38-2.53,6.9,6.9,0,0,1,.44-2.48,6.24,6.24,0,0,1,1.23-2,5.75,5.75,0,0,1,1.89-1.36,5.83,5.83,0,0,1,2.43-.5,5.18,5.18,0,0,1,2,.38,4.59,4.59,0,0,1,1.56,1.07,4.81,4.81,0,0,1,1,1.62,5.68,5.68,0,0,1,.36,2q0,.56-.4.56Zm4.88-.94a.49.49,0,0,0,.29-.07.37.37,0,0,0,.14-.2,1.1,1.1,0,0,0,0-.29c0-.11,0-.23,0-.36a3.3,3.3,0,0,0-.18-1.07,3.07,3.07,0,0,0-.49-.92,2.4,2.4,0,0,0-.78-.64,2.21,2.21,0,0,0-1-.24,2.78,2.78,0,0,0-1.24.25,2.61,2.61,0,0,0-.87.68,3.15,3.15,0,0,0-.55,1,5.62,5.62,0,0,0-.27,1.16,2.3,2.3,0,0,0,0,.51c0,.13,0,.2.12.2Z"/>
      <path class="cls-1" d="M169,52.2a.27.27,0,0,1-.14.27q-.69.49-1.33.91a6.51,6.51,0,0,1-1.45.7,9.82,9.82,0,0,1-1.89.42,20.2,20.2,0,0,1-2.6.14,11.15,11.15,0,0,1-3.88-.62,7.48,7.48,0,0,1-2.84-1.81,7.78,7.78,0,0,1-1.74-2.91,12,12,0,0,1-.6-3.94,10.81,10.81,0,0,1,.7-4,8.05,8.05,0,0,1,4.93-4.77,11.09,11.09,0,0,1,3.75-.61,9,9,0,0,1,2.48.33,10.41,10.41,0,0,1,2.09.84,2.69,2.69,0,0,0,.92.33q.38,0,.58-.49a.24.24,0,0,1,.17-.2.68.68,0,0,1,.29,0,.57.57,0,0,1,.25.08.16.16,0,0,1,.08.18,8.09,8.09,0,0,0-.17,2.26q.06,1.26.19,2.56a.31.31,0,0,1-.13.25.61.61,0,0,1-.29.13.57.57,0,0,1-.32,0,.28.28,0,0,1-.18-.22,5.36,5.36,0,0,0-2-3.56,6.57,6.57,0,0,0-4.11-1.24,4.92,4.92,0,0,0-2.65.69,5.68,5.68,0,0,0-1.81,1.81,8.2,8.2,0,0,0-1,2.52,12.07,12.07,0,0,0-.33,2.79,15,15,0,0,0,.38,3.52,8.35,8.35,0,0,0,1.14,2.72,5.41,5.41,0,0,0,1.85,1.74,5.11,5.11,0,0,0,2.54.61,11.46,11.46,0,0,0,1.89-.14,4,4,0,0,0,1.45-.51,2.51,2.51,0,0,0,.93-1,3.7,3.7,0,0,0,.33-1.67,5.9,5.9,0,0,0-.1-1.25,1.22,1.22,0,0,0-.4-.7,1.72,1.72,0,0,0-.8-.33q-.51-.09-1.31-.17a.28.28,0,0,1-.26-.13.54.54,0,0,1-.08-.28.47.47,0,0,1,.08-.27.24.24,0,0,1,.21-.12q.94,0,1.94.07t1.77.07l.71,0,.69,0,.77,0,.95,0a.21.21,0,0,1,.2.12.54.54,0,0,1,.07.27.47.47,0,0,1-.08.27.34.34,0,0,1-.25.14,3.07,3.07,0,0,0-.9.19,1,1,0,0,0-.46.37,1.32,1.32,0,0,0-.17.6q0,.36,0,.87Z"/>
      <path class="cls-1" d="M178.13,51.16q0,.66,0,1.12a1.87,1.87,0,0,0,.19.75,1.06,1.06,0,0,0,.49.46,3.1,3.1,0,0,0,.94.24.31.31,0,0,1,.21.14.46.46,0,0,1,.07.25.56.56,0,0,1-.07.27.23.23,0,0,1-.21.13l-.56,0-.7-.07-.78-.07-.8,0a14.93,14.93,0,0,0-1.67.09,14,14,0,0,1-1.56.09.21.21,0,0,1-.2-.12.54.54,0,0,1,0-.53.3.3,0,0,1,.21-.15,4.25,4.25,0,0,0,1.09-.23,1.13,1.13,0,0,0,.56-.44,1.51,1.51,0,0,0,.2-.7q0-.42,0-1V47q0-1.17-.05-1.85a2.69,2.69,0,0,0-.25-1,1,1,0,0,0-.57-.5,4.66,4.66,0,0,0-1-.21.19.19,0,0,1-.18-.12.61.61,0,0,1-.06-.27.65.65,0,0,1,.06-.27.19.19,0,0,1,.18-.13q.59,0,1.22-.12l1.19-.18,1-.16.5-.07q.33,0,.42.19a.8.8,0,0,1,.09.34Zm-1.4-11.8a1.74,1.74,0,0,1-1.16-.42,1.3,1.3,0,0,1-.47-1,1.43,1.43,0,0,1,.12-.58,1.36,1.36,0,0,1,.33-.46,1.59,1.59,0,0,1,.5-.31,1.72,1.72,0,0,1,.62-.11,1.42,1.42,0,0,1,.58.12,1.44,1.44,0,0,1,.46.32,1.48,1.48,0,0,1,.42,1,1.44,1.44,0,0,1-.1.55,1.41,1.41,0,0,1-.29.45,1.37,1.37,0,0,1-.44.31A1.4,1.4,0,0,1,176.73,39.36Z"/>
      <path class="cls-1" d="M187.76,51.21a10.69,10.69,0,0,0,0,1.09,1.32,1.32,0,0,0,.27.72,1.51,1.51,0,0,0,.71.44,7.06,7.06,0,0,0,1.37.27q.33.05.3.43t-.27.36a17.9,17.9,0,0,1-1.91-.09,15.16,15.16,0,0,0-1.63-.09,16.11,16.11,0,0,0-1.71.09,15.56,15.56,0,0,1-1.65.09q-.27,0-.27-.38t.3-.42a6,6,0,0,0,1.11-.25,1.14,1.14,0,0,0,.58-.41,1.4,1.4,0,0,0,.21-.69q0-.42,0-1.09V44q0-.18,0-.29a.26.26,0,0,0,0-.15.21.21,0,0,0-.13-.06h-1.6a.26.26,0,0,1-.23-.13.6.6,0,0,1-.08-.31.74.74,0,0,1,.08-.34.33.33,0,0,1,.25-.19l1.44-.14.18,0s.07-.05.09-.12a1.34,1.34,0,0,0,0-.33q0-.22,0-.62a6.25,6.25,0,0,1,.36-2.17,5,5,0,0,1,1.05-1.73,4.72,4.72,0,0,1,1.7-1.14,6.14,6.14,0,0,1,2.32-.41,6.8,6.8,0,0,1,1.32.13,3.75,3.75,0,0,1,1.18.44,2.48,2.48,0,0,1,.84.8,2.19,2.19,0,0,1,.32,1.21,1.08,1.08,0,0,1-.1.45,1.17,1.17,0,0,1-.27.38,1.27,1.27,0,0,1-.41.25,1.39,1.39,0,0,1-.51.09,1.58,1.58,0,0,1-.43-.06,1.35,1.35,0,0,1-.38-.17.82.82,0,0,1-.27-.28.76.76,0,0,1-.1-.39.78.78,0,0,1,.12-.52.4.4,0,0,0,.13-.31.87.87,0,0,0-.45-.81,2.28,2.28,0,0,0-1.15-.26,2.9,2.9,0,0,0-1.16.21,2.13,2.13,0,0,0-.78.57,2.64,2.64,0,0,0-.48.83,5.2,5.2,0,0,0-.25,1,8.37,8.37,0,0,0-.09,1q0,.53,0,1v.51a.78.78,0,0,0,.05.38s.15.07.35.07h2.58q.32,0,.33.56t-.33.56h-2.81a.19.19,0,0,0-.12.06.26.26,0,0,0,0,.15q0,.1,0,.29Z"/>
      <path class="cls-1" d="M197.63,50.28a5.56,5.56,0,0,0,.33,2.21,1.22,1.22,0,0,0,1.22.72,3.5,3.5,0,0,0,1.16-.19,3.27,3.27,0,0,0,.83-.4.21.21,0,0,1,.2,0,.62.62,0,0,1,.19.13.46.46,0,0,1,.12.2.22.22,0,0,1,0,.19,3.08,3.08,0,0,1-1.33,1.16,4.63,4.63,0,0,1-1.89.35,3.39,3.39,0,0,1-2.57-.81,3.65,3.65,0,0,1-.75-2.55V44.43a3.63,3.63,0,0,0,0-.5.34.34,0,0,0-.17-.26,1,1,0,0,0-.44-.1h-.86q-.09,0-.15-.19a1.3,1.3,0,0,1-.06-.39.78.78,0,0,1,.05-.3c0-.09.09-.13.16-.13a6,6,0,0,0,1.06-.22,1.92,1.92,0,0,0,.77-.46A2.3,2.3,0,0,0,196,41a6.66,6.66,0,0,0,.32-1.41q0-.17.26-.25a1.57,1.57,0,0,1,.5-.08,1.27,1.27,0,0,1,.4.06q.18.06.18.16V41.8a1.51,1.51,0,0,0,0,.49s.14.07.34.07h2.77a.22.22,0,0,1,.23.17,1.42,1.42,0,0,1,.05.41,1.24,1.24,0,0,1-.07.47.24.24,0,0,1-.25.15h-2.89c-.13,0-.2,0-.21.09a1.3,1.3,0,0,0,0,.21q0,.16,0,.46Z"/>
    </g>
    <rect class="cls-2" x="4.99" y="34.62" width="9.32" height="9.32"/>
    <rect class="cls-1" x="17.1" y="46.72" width="9.32" height="9.32"/>
    <rect class="cls-1" x="17.1" y="34.62" width="9.32" height="9.32"/>
    <rect class="cls-1" x="4.99" y="46.72" width="9.32" height="9.32"/>
  </g>
</svg>
