<svg id="レイヤー_1" data-name="レイヤー 1" xmlns="http://www.w3.org/2000/svg" xmlns:xlink="http://www.w3.org/1999/xlink" width="73mm" height="32mm" viewBox="0 0 206.93 90.71">
  <defs>
    <style>
      .cls-1 {
        fill: url(#linear-gradient);
      }

      .cls-2 {
        fill: #f8bd00;
      }

      .cls-3 {
        fill: #004473;
      }

      .cls-4 {
        fill: url(#linear-gradient-2);
      }

      .cls-5 {
        fill: none;
      }
    </style>
    <linearGradient id="linear-gradient" x1="24.8" y1="64.26" x2="48.84" y2="22.27" gradientTransform="translate(0.07 -0.06) rotate(0.1)" gradientUnits="userSpaceOnUse">
      <stop offset="0" stop-color="#0068b5"/>
      <stop offset="0.11" stop-color="#207abe"/>
      <stop offset="0.44" stop-color="#76acd7"/>
      <stop offset="0.71" stop-color="#b5d0e9"/>
      <stop offset="0.9" stop-color="#dce6f4"/>
      <stop offset="1" stop-color="#ebeff8"/>
    </linearGradient>
    <linearGradient id="linear-gradient-2" x1="36.88" y1="67.44" x2="36.88" y2="31.06" gradientUnits="userSpaceOnUse">
      <stop offset="0" stop-color="#004e97"/>
      <stop offset="0.41" stop-color="#6d99c3"/>
      <stop offset="0.82" stop-color="#d5e2ee"/>
      <stop offset="1" stop-color="#fff"/>
    </linearGradient>
  </defs>
  <title>イラスト素材</title>
  <g>
    <circle class="cls-1" cx="36.82" cy="43.27" r="24.29" transform="translate(-0.07 0.06) rotate(-0.1)"/>
    <path class="cls-2" d="M70.1,54c19.29-22.36,100.53-29,125.84,3.51H183.17C160.36,30,94,32.16,72.49,57.44Z"/>
    <g>
      <path class="cls-3" d="M102.43,38.7c-8.25,0-8.36,8.36-8.36,9.74s.66,9.29,9.24,9.29a9.05,9.05,0,0,0,5.5-1.7l.81-2.13-.44-.37a6.86,6.86,0,0,1-4.51,1.69c-2.79,0-5.1-2.31-5.1-7.06H110.3S111.67,38.7,102.43,38.7Zm2.93,7.76H99.61s-.15-6.2,2.9-6.2S105.36,46.46,105.36,46.46Z"/>
      <path class="cls-3" d="M185,38.7c-8.25,0-8.36,8.36-8.36,9.74s.66,9.29,9.24,9.29a9.05,9.05,0,0,0,5.5-1.7l.8-2.13-.44-.37a6.86,6.86,0,0,1-4.51,1.69c-2.79,0-5.1-2.31-5.1-7.06H192.9S194.28,38.7,185,38.7ZM188,46.46h-5.76s-.15-6.2,2.9-6.2S188,46.46,188,46.46Z"/>
      <path class="cls-3" d="M120.47,55c-1.13-1.35-.74-9.9-.51-13.87,1.34,0,2.55,0,3.29.06a4.51,4.51,0,0,1-.09-1,4.82,4.82,0,0,1,.09-1s-1.39,0-3.3.08c0-.8.1-4.17.33-6.61l-.34-.26-5.11,2.31s.1,1,.1,4.56c-.89,0-1.75,0-2.53-.09a6.05,6.05,0,0,1,.11,1,3.65,3.65,0,0,1-.15.93l2.56,0c0,2.44-.08,5.75-.21,10.2-.16,5.39,2.82,6.27,4.66,6.27a8.47,8.47,0,0,0,4.14-1v-1.5S121.32,56,120.47,55Z"/>
      <path class="cls-3" d="M125.24,57.24A5.91,5.91,0,0,1,127,57a6.71,6.71,0,0,1,1.79.22s1-14.12,1.44-17c0,0,6.16,12.25,8.25,17a1.83,1.83,0,0,1,.73-.13,1.8,1.8,0,0,1,.74.14s6.44-13.9,8.2-17.35c0,0,1.12,8.42,1.56,17.38a21.3,21.3,0,0,1,3-.22,23.32,23.32,0,0,1,3.11.22s-2.61-17-3.27-25.74a9.94,9.94,0,0,1-1.6.15,7.16,7.16,0,0,1-1.54-.18s-5.45,12-8.69,17.8c0,0-6.57-13.39-8.61-17.79a3.6,3.6,0,0,1-1.51.25,4,4,0,0,1-1.58-.26S127.42,46.35,125.24,57.24Z"/>
      <path class="cls-3" d="M158.93,57.16a17.58,17.58,0,0,1,2.71-.22,17.22,17.22,0,0,1,2.82.26s-.66-12.25,0-18a19.41,19.41,0,0,1-5.57,0S159.7,50,158.93,57.16Z"/>
      <path class="cls-3" d="M168.17,57.22a17.49,17.49,0,0,1,2.71-.22,17.21,17.21,0,0,1,2.82.26s-.84-20.09,0-28.23a23.31,23.31,0,0,1-2.71.18A23.11,23.11,0,0,1,168.1,29S168.94,50,168.17,57.22Z"/>
      <circle class="cls-3" cx="161.76" cy="32.01" r="2.93"/>
      <path class="cls-3" d="M68.3,57.24A10.9,10.9,0,0,1,70.12,57a7.69,7.69,0,0,1,1.64.19s-.51-9.52-.13-18.15c0,0,10,10.83,16.28,18.15A3.68,3.68,0,0,1,89.34,57a4.73,4.73,0,0,1,1.54.22s-.08-17.52.58-25.82a5.91,5.91,0,0,1-1.6.23,7.72,7.72,0,0,1-1.8-.26s.44,6.37.29,17.84c0,0-13.42-14.79-16.22-17.76a7.79,7.79,0,0,1-1.56.14,11.84,11.84,0,0,1-1.8-.15A198,198,0,0,1,68.3,57.24Z"/>
    </g>
    <path class="cls-4" d="M60.36,50.18h0A24.46,24.46,0,0,0,54,25.86c-.4-.39-.81-.77-1.23-1.13l0,0h0a24.27,24.27,0,0,0-16.09-5.84,24.76,24.76,0,0,0-3.35.26h0l-.12,0h0l-.07,0a24.24,24.24,0,0,0-7.65,2.55h0l-.05,0a24.56,24.56,0,0,0-6,4.55h0l0,0a24.52,24.52,0,0,0-3.82,5.15l-.07.12h0a24.29,24.29,0,0,0-2.69,7.8h0a24.59,24.59,0,0,0-.31,4.14,24.46,24.46,0,0,0,32,23h0q.82-.27,1.6-.59h0a24.43,24.43,0,0,0,6.5-4l0,0h0a24.62,24.62,0,0,0,4.59-5.18l0,0h0a24.41,24.41,0,0,0,3-6.57ZM49.18,62.93A22.74,22.74,0,0,1,40,62.55a29,29,0,0,0,2.57-3.84,31.16,31.16,0,0,0,3.86.64,20.51,20.51,0,0,0,5.68-.16A17.32,17.32,0,0,1,49.18,62.93ZM13.74,49.79A23,23,0,0,0,18,55.49a8.46,8.46,0,0,0,.47,3.4,23.93,23.93,0,0,1-4.52-8.07h0A9.41,9.41,0,0,1,13.74,49.79ZM13.79,44a24.77,24.77,0,0,0,5.1,7.17A16.15,16.15,0,0,0,18,55a21.48,21.48,0,0,1-4.42-6.33A18.25,18.25,0,0,1,13.79,44Zm14.6-21.61.43-.1a6.2,6.2,0,0,0,.08,4.47,29.5,29.5,0,0,0-5.24,2.73c-.06-.17-.11-.34-.16-.52a6.7,6.7,0,0,1,.23-4.86A21.53,21.53,0,0,1,28.38,22.39Zm9.09-2.67a4,4,0,0,0-2.26,1.69,24.37,24.37,0,0,0-5.79.41,5.7,5.7,0,0,1,3.73-2.35l.19,0A16,16,0,0,1,37.48,19.72Zm-22,17.62a7.62,7.62,0,0,1,.43-6h0A18.52,18.52,0,0,1,18.49,28a8.32,8.32,0,0,0,.07,4.81c.07.27.16.54.26.81a24.85,24.85,0,0,0-3.15,4.3C15.6,37.72,15.54,37.53,15.49,37.34ZM18.94,34a23.34,23.34,0,0,0,5.2,7.67,48.09,48.09,0,0,0-3,4.65,23.42,23.42,0,0,1-5.33-8A24.61,24.61,0,0,1,18.94,34Zm16.31-9.39a3.79,3.79,0,0,1,.16-2.82,25.88,25.88,0,0,1,5.67.95,2.44,2.44,0,0,0,0,1.47l0,.1a36.69,36.69,0,0,0-5.76.63C35.32,24.78,35.28,24.68,35.25,24.57Zm10.19-.24.14-.3a27.79,27.79,0,0,0-4-1.55,2,2,0,0,1,1.13-.79A15.3,15.3,0,0,1,45.78,24l.24-.23a15.38,15.38,0,0,0-2.87-2.17,6.12,6.12,0,0,1,2.15.1A10.38,10.38,0,0,1,46.64,24l.31-.12a10.36,10.36,0,0,0-1.14-2.1,11.25,11.25,0,0,1,2.44,1l-.79,1.41.29.16L48.54,23a11.19,11.19,0,0,1,2.23,1.69,10.37,10.37,0,0,0-2.3.12l.06.32A10.35,10.35,0,0,1,51.11,25a5.89,5.89,0,0,1,1.1,1.68,15.07,15.07,0,0,0-3.12-1.21L49,25.8a15.11,15.11,0,0,1,3.35,1.34,2,2,0,0,1-.09,1.4,27.25,27.25,0,0,0-3.09-2.43l-.18.27a27.29,27.29,0,0,1,3.09,2.44,2.13,2.13,0,0,1-1.15.69,17.73,17.73,0,0,0-2-2.83l-.24.22a17,17,0,0,1,1.91,2.68,6.06,6.06,0,0,1-2.17-.11,25.35,25.35,0,0,0-.46-2.6l-.32.08c0,.14.24,1,.44,2.45a11.24,11.24,0,0,1-2.59-1l1.28-2.28-.29-.16L45.21,28.2a11.36,11.36,0,0,1-2.08-1.53,25,25,0,0,1,2.38-.92l-.1-.31a25.63,25.63,0,0,0-2.53,1,6.42,6.42,0,0,1-1.3-1.83,17.43,17.43,0,0,1,3.44.24l.07-.32a18.07,18.07,0,0,0-3.63-.24c0-.06,0-.12-.06-.18a2.07,2.07,0,0,1,0-1.29A27.25,27.25,0,0,1,45.44,24.33ZM59.22,39.89a21.47,21.47,0,0,1,.9,4.89,6.78,6.78,0,0,1-3.95,2.58l-.37.1a29.57,29.57,0,0,0-.42-6A6.08,6.08,0,0,0,59,39.28C59.08,39.48,59.15,39.68,59.22,39.89ZM30.86,53.7a44.08,44.08,0,0,1-9.49-7.16,47.56,47.56,0,0,1,3-4.66,43,43,0,0,0,9.22,7Zm2.9-5.15a42.73,42.73,0,0,1-9.19-6.93,47,47,0,0,1,3.76-4.47,38.35,38.35,0,0,0,8.31,6.28ZM28.57,36.9a47.51,47.51,0,0,1,4.42-4A31.08,31.08,0,0,0,39.72,38l-2.91,5.17A38,38,0,0,1,28.57,36.9ZM38,29.37a22,22,0,0,0,4.62,3.5l-2.7,4.8a31,31,0,0,1-6.64-5A47.6,47.6,0,0,1,38,29.37Zm4.85-2.57a11.49,11.49,0,0,0,2.24,1.68l-2.31,4.1a21.67,21.67,0,0,1-4.5-3.38A42.78,42.78,0,0,1,42.81,26.81ZM52.34,29a25.89,25.89,0,0,1,3.78,4.42,4,4,0,0,1-2.51,1.62,36.5,36.5,0,0,0-2.5-5.29A2.42,2.42,0,0,0,52.34,29Zm.94,6.11A11.54,11.54,0,0,1,48.8,35a43.55,43.55,0,0,0-.32-5.16,6.3,6.3,0,0,0,2.3.06A35.65,35.65,0,0,1,53.29,35.15ZM42.87,33a21.6,21.6,0,0,0,5.6,2.19A47.22,47.22,0,0,1,48.12,41a30.92,30.92,0,0,1-7.95-3.12Zm5.93,2.26a11.77,11.77,0,0,0,4.6.15c.37,1,.71,2.06,1,3.16.22.82.42,1.71.59,2.65A16.2,16.2,0,0,1,48.44,41,48,48,0,0,0,48.8,35.29Zm-.33-.4A21.55,21.55,0,0,1,43,32.74l2.3-4.1a11.17,11.17,0,0,0,2.8,1.09A43,43,0,0,1,48.47,34.89ZM40,38.12a30.77,30.77,0,0,0,8.07,3.15,47.71,47.71,0,0,1-1.15,5.91,38,38,0,0,1-9.83-3.89Zm8.39,3.22a16.66,16.66,0,0,0,6.66.22,29.33,29.33,0,0,1,.41,6,19.86,19.86,0,0,1-8.22-.28A47.51,47.51,0,0,0,48.4,41.34Zm6.93-.16c-.17-.95-.38-1.84-.6-2.66-.29-1.09-.63-2.15-1-3.14a4.33,4.33,0,0,0,2.61-1.61,24,24,0,0,1,2.56,5.12A5.62,5.62,0,0,1,55.32,41.18ZM52.53,28.77h0a2.15,2.15,0,0,0,.21-1.41A17.29,17.29,0,0,1,56.31,30a4.1,4.1,0,0,1,0,3.14A26.32,26.32,0,0,0,52.53,28.77Zm.11-1.85a5.48,5.48,0,0,0-1-1.85,6.43,6.43,0,0,1,1.55.43A13.2,13.2,0,0,1,56,29.27,17.9,17.9,0,0,0,52.65,26.92ZM41.23,24.59a6.49,6.49,0,0,0,1.34,2A43.74,43.74,0,0,0,38,29a11.76,11.76,0,0,1-2.55-3.75A36.2,36.2,0,0,1,41.23,24.59Zm-3.5,4.54A47.89,47.89,0,0,0,33,32.43,16.83,16.83,0,0,1,29.29,27c1-.38,1.88-.69,2.75-.94,1-.31,2.09-.55,3.09-.75A12,12,0,0,0,37.73,29.13Zm-5,3.5a48,48,0,0,0-4.42,4,20.16,20.16,0,0,1-4.57-6.85A29.07,29.07,0,0,1,29,27.07,17.19,17.19,0,0,0,32.76,32.63ZM28.11,36.9a48.18,48.18,0,0,0-3.77,4.47,22.75,22.75,0,0,1-5.15-7.68A25.55,25.55,0,0,1,23.48,30,20.71,20.71,0,0,0,28.11,36.9Zm-6.89,9.93A44.38,44.38,0,0,0,30.7,54l-2.26,4a42.72,42.72,0,0,1-9.17-6.91A27.42,27.42,0,0,1,21.21,46.83ZM31,54.15a44.51,44.51,0,0,0,11.27,4.49,28.31,28.31,0,0,1-2.59,3.84,42.61,42.61,0,0,1-10.94-4.31Zm.16-.29L33.89,49a42.77,42.77,0,0,0,11,4.35,48,48,0,0,1-2.42,5A43.78,43.78,0,0,1,31.15,53.86Zm2.9-5.15,2.89-5.13a38.31,38.31,0,0,0,9.9,3.92A46.8,46.8,0,0,1,45,53,42.34,42.34,0,0,1,34.05,48.71Zm13.11-1.14a20.32,20.32,0,0,0,8.29.31,25.5,25.5,0,0,1-.9,5.6,22.68,22.68,0,0,1-9.24-.37A47.74,47.74,0,0,0,47.16,47.57Zm8.62.23.48-.12a7.33,7.33,0,0,0,3.88-2.38,19.52,19.52,0,0,1-.54,5.4,8.16,8.16,0,0,1-4.69,2.7A25.78,25.78,0,0,0,55.78,47.8Zm4.67-2.93c.07-.11.14-.22.2-.33a5.74,5.74,0,0,0,.36-.78,24.07,24.07,0,0,1-.86,6A20,20,0,0,0,60.45,44.87Zm0-.58a22.12,22.12,0,0,0-.88-4.5c-.09-.29-.19-.58-.29-.87l0-.07a5.08,5.08,0,0,0,.6-2.86A24.22,24.22,0,0,1,61,42.51,5.55,5.55,0,0,1,60.41,44.3ZM59.1,38.51a24.44,24.44,0,0,0-2.58-5.05,4,4,0,0,0,.27-3,16,16,0,0,1,1.84,2.34h0c.13.27.25.54.37.81h0A6,6,0,0,1,59.1,38.51ZM56.58,29.8a8.49,8.49,0,0,0-.53-1.15,24.06,24.06,0,0,1,1.51,2.2C57.24,30.47,56.91,30.12,56.58,29.8Zm-5.31-5.11a11.23,11.23,0,0,0-2.57-2l.18-.32a24.12,24.12,0,0,1,3.64,2.57A7.92,7.92,0,0,0,51.27,24.69Zm-2.86-2.18A11.15,11.15,0,0,0,45.5,21.4a7.55,7.55,0,0,0-.86-.92q.79.25,1.59.58h0a23.63,23.63,0,0,1,2.34,1.14ZM43.8,20.23A6.16,6.16,0,0,1,45,21.31a5.71,5.71,0,0,0-2.25,0A17.8,17.8,0,0,0,39,19.75,13.25,13.25,0,0,1,43.8,20.23Zm-1.48,1.25a2.12,2.12,0,0,0-1.1.9,26.3,26.3,0,0,0-5.62-1,4.11,4.11,0,0,1,2.6-1.55A17.35,17.35,0,0,1,42.32,21.48Zm-7.26.24a4.23,4.23,0,0,0-.12,2.93c0,.1.06.2.09.3-1,.2-2,.45-3.07.75-.87.26-1.81.57-2.77.94a5.73,5.73,0,0,1,0-4.45A24.1,24.1,0,0,1,35.05,21.73ZM23.18,29.07c.06.21.12.41.19.62a25.89,25.89,0,0,0-4.3,3.66c-.07-.21-.13-.41-.19-.62a7.59,7.59,0,0,1,.18-5.29,19.47,19.47,0,0,1,4.19-3.06A7.23,7.23,0,0,0,23.18,29.07Zm-8,8.36c.08.28.17.57.27.86a17.58,17.58,0,0,0-1.76,4.56,10.06,10.06,0,0,1-.61-3.44,23.94,23.94,0,0,1,1.79-6A9.25,9.25,0,0,0,15.17,37.43Zm.43,1.27A24.25,24.25,0,0,0,21,46.58a28.6,28.6,0,0,0-2,4.24,23.57,23.57,0,0,1-5.11-7.41A17.29,17.29,0,0,1,15.6,38.7Zm3.55,12.73a43.11,43.11,0,0,0,9.13,6.86l-1.8,3.19a38.32,38.32,0,0,1-8.13-6.12A15.34,15.34,0,0,1,19.15,51.43Zm7.46,10.5a38.71,38.71,0,0,0,9.53,3.82A7.19,7.19,0,0,1,32.43,67a23.82,23.82,0,0,1-7.23-2.6Zm.16-.29,1.8-3.19a43,43,0,0,0,10.87,4.3,15.37,15.37,0,0,1-2.9,2.73A38,38,0,0,1,26.77,61.64Zm13,1.2a24,24,0,0,0,8.94.51,18.36,18.36,0,0,1-3.61,2.53,20.11,20.11,0,0,1-8.17-.3A16.37,16.37,0,0,0,39.8,62.84Zm3-4.43a47.94,47.94,0,0,0,2.41-5,28.76,28.76,0,0,0,4.88.68,18.75,18.75,0,0,0,4.39-.26,24.52,24.52,0,0,1-2.09,5A23.61,23.61,0,0,1,42.77,58.41Zm12-4.63a9,9,0,0,0,4.6-2.35,18.65,18.65,0,0,1-1.66,4c-.23.41-.48.81-.74,1.2a9,9,0,0,1-4.24,2.13A24.86,24.86,0,0,0,54.8,53.77ZM36.66,19.18a24.6,24.6,0,0,1,3.08.16,8.56,8.56,0,0,0-1.58.18,16.35,16.35,0,0,0-1.93-.34ZM29,21.83l0,.09-.69.15A21.93,21.93,0,0,0,24,23.61,5.67,5.67,0,0,1,25.56,22a24,24,0,0,1,5.51-2.12A5.06,5.06,0,0,0,29,21.83Zm-4.83,1a5.67,5.67,0,0,0-.63.9l-.1.19a20,20,0,0,0-3.89,2.62A24.34,24.34,0,0,1,24.21,22.78ZM13.55,43.44a18.63,18.63,0,0,0-.34,4.21q-.09-.28-.16-.55h0A24.46,24.46,0,0,1,12.87,41,12.28,12.28,0,0,0,13.55,43.44ZM19.44,60a6.32,6.32,0,0,1-1.1-4.14,38.94,38.94,0,0,0,8,5.92l-1.41,2.51A24.32,24.32,0,0,1,20,60.53ZM37.1,67.44a24.63,24.63,0,0,1-3.52-.22,8.76,8.76,0,0,0,3-1.36,22,22,0,0,0,7.29.55A24.1,24.1,0,0,1,37.1,67.44Zm9.47-2a18.47,18.47,0,0,0,2.77-2.17,11.87,11.87,0,0,0,1.93-.57A24.24,24.24,0,0,1,46.58,65.41Zm5.89-3.69a9.82,9.82,0,0,1-2.68,1.08,17.61,17.61,0,0,0,2.77-3.69,10.45,10.45,0,0,0,3.79-1.56A24.33,24.33,0,0,1,52.47,61.72Z"/>
    <path class="cls-2" d="M34.24,52.93a4.41,4.41,0,0,1,1.28-.17,5,5,0,0,1,1.33.17s.74-10.51,1.07-12.67c0,0,4.58,9.12,6.14,12.64a1.36,1.36,0,0,1,.54-.1,1.33,1.33,0,0,1,.55.1S50,42.55,51.28,40c0,0,.83,6.26,1.16,12.94a15.79,15.79,0,0,1,2.25-.17,17.32,17.32,0,0,1,2.31.17s-1.94-12.7-2.44-19.17a7.34,7.34,0,0,1-1.19.11,5.34,5.34,0,0,1-1.15-.14S48.18,42.65,45.76,47c0,0-4.89-10-6.41-13.25a2.7,2.7,0,0,1-1.13.18,3,3,0,0,1-1.17-.19S35.87,44.82,34.24,52.93Z"/>
    <path class="cls-2" d="M16.83,52.93a8.12,8.12,0,0,1,1.36-.14,5.76,5.76,0,0,1,1.22.14s-.38-7.09-.1-13.51c0,0,7.45,8.07,12.12,13.51a2.75,2.75,0,0,1,1.06-.17,3.52,3.52,0,0,1,1.14.17s-.06-13,.43-19.23a4.42,4.42,0,0,1-1.19.17,5.71,5.71,0,0,1-1.34-.19s.33,4.74.22,13.29c0,0-10-11-12.08-13.23a5.72,5.72,0,0,1-1.16.1,8.75,8.75,0,0,1-1.34-.11A147.76,147.76,0,0,1,16.83,52.93Z"/>
    <rect class="cls-5" x="6.71" y="12.79" width="194.96" height="60.72"/>
  </g>
</svg>
