<svg id="レイヤー_1" data-name="レイヤー 1" xmlns="http://www.w3.org/2000/svg" width="73mm" height="32mm" viewBox="0 0 206.93 90.71">
  <defs>
    <style>
      .cls-1 {
        fill: #e85513;
      }

      .cls-2 {
        fill: #231815;
      }

      .cls-3 {
        fill: #595757;
      }

      .cls-4 {
        fill: #fff;
      }
    </style>
  </defs>
  <title>イラスト素材</title>
  <g>
    <g>
      <path class="cls-1" d="M93.65,57.94v2.72h13.69V62.6H93.65V70H91.84v-12a4.66,4.66,0,0,1,1.27-3.3,4,4,0,0,1,3.06-1.36h11.18v1.94H96.16a2.35,2.35,0,0,0-1.77.79A2.73,2.73,0,0,0,93.65,57.94Z"/>
      <path class="cls-1" d="M119.29,66.56a3.44,3.44,0,0,1-.93,2.41,3,3,0,0,1-2.25,1h-4.53a3,3,0,0,1-2.25-1,3.61,3.61,0,0,1,0-4.84,3,3,0,0,1,2.25-1h5.9V61.67a1.51,1.51,0,0,0-.39-1,1.24,1.24,0,0,0-1-.44H108.4v-2h7.71a2.89,2.89,0,0,1,2.27,1,3.53,3.53,0,0,1,.91,2.4Zm-2.21,1a1.49,1.49,0,0,0,.4-1V65.08h-5.9a1.27,1.27,0,0,0-1,.43,1.55,1.55,0,0,0,0,2.07,1.25,1.25,0,0,0,1,.45h4.53A1.27,1.27,0,0,0,117.08,67.59Z"/>
      <path class="cls-1" d="M132.29,68V70h-7.71a3,3,0,0,1-2.25-1,3.43,3.43,0,0,1-.93-2.41V61.67a3.46,3.46,0,0,1,.93-2.43,3,3,0,0,1,2.25-1h7.71v2h-7.71a1.29,1.29,0,0,0-1,.41,1.48,1.48,0,0,0-.39,1.06v4.89a1.51,1.51,0,0,0,.39,1,1.25,1.25,0,0,0,1,.44Z"/>
      <path class="cls-1" d="M139.17,60.19v6.37a1.49,1.49,0,0,0,.4,1,1.25,1.25,0,0,0,1,.45h.91V70h-.91a3,3,0,0,1-2.25-1,3.43,3.43,0,0,1-.93-2.41V60.19h-3v-2h3V53.28h1.81v4.94h3.08v2Z"/>
      <path class="cls-1" d="M148,70a3,3,0,0,1-2.25-1,3.44,3.44,0,0,1-.93-2.41V61.67a3.46,3.46,0,0,1,.93-2.43,3,3,0,0,1,2.25-1h4.53a2.89,2.89,0,0,1,2.28,1,3.53,3.53,0,0,1,.91,2.4v4.89a3.44,3.44,0,0,1-.93,2.41,3,3,0,0,1-2.25,1ZM152.57,68a1.27,1.27,0,0,0,1-.44,1.49,1.49,0,0,0,.4-1V61.67a1.52,1.52,0,0,0-.39-1,1.24,1.24,0,0,0-1-.44H148a1.29,1.29,0,0,0-1,.41,1.48,1.48,0,0,0-.39,1.06v4.89a1.52,1.52,0,0,0,.39,1,1.25,1.25,0,0,0,1,.44Z"/>
      <path class="cls-1" d="M168.74,58.22v2H161a1.27,1.27,0,0,0-1,.43,1.5,1.5,0,0,0-.39,1V70h-1.81V61.67a3.41,3.41,0,0,1,.93-2.42,3,3,0,0,1,2.25-1Z"/>
      <path class="cls-1" d="M182.77,58.22v3.44a3.42,3.42,0,0,1-.93,2.41,2.94,2.94,0,0,1-2.25,1h-1.37V70H176.4V65.08h-1.35a3,3,0,0,1-2.25-1,3.42,3.42,0,0,1-.93-2.41V58.22h1.81v3.44a1.52,1.52,0,0,0,.39,1,1.25,1.25,0,0,0,1,.44h4.53a1.27,1.27,0,0,0,1-.44,1.5,1.5,0,0,0,.4-1V58.22Z"/>
    </g>
    <g>
      <path class="cls-2" d="M115.44,29.41V47.72h-2.76V36.5H94.61V47.72H91.85V29.41a7.08,7.08,0,0,1,1.93-5,6.13,6.13,0,0,1,4.65-2.07h10.44a6.11,6.11,0,0,1,4.67,2.07A7.13,7.13,0,0,1,115.44,29.41Zm-2.76,4.14V29.41a4.24,4.24,0,0,0-1.1-2.87,3.47,3.47,0,0,0-2.72-1.26H98.43a3.57,3.57,0,0,0-2.7,1.2,4.14,4.14,0,0,0-1.12,2.93v4.14Z"/>
      <path class="cls-2" d="M136,22.32v20.2a5.21,5.21,0,0,1-1.42,3.66,4.49,4.49,0,0,1-3.43,1.54h-6.89a4.49,4.49,0,0,1-3.43-1.54,5.21,5.21,0,0,1-1.42-3.66V35.08a5.27,5.27,0,0,1,1.42-3.7,4.49,4.49,0,0,1,3.43-1.54h9V22.32Zm-2.76,18.43V32.84h-9a2,2,0,0,0-1.49.63,2.27,2.27,0,0,0-.59,1.61v7.44a2.31,2.31,0,0,0,.59,1.58,1.9,1.9,0,0,0,1.49.67h6.89a1.93,1.93,0,0,0,1.48-.67,2.27,2.27,0,0,0,.61-1.58Z"/>
    </g>
    <polygon class="cls-1" points="77.06 66 47.79 72.66 47.79 40.9 77.96 35.15 77.06 66"/>
    <polygon class="cls-2" points="59.84 27.73 29.23 33.48 47.34 39.69 77.96 33.94 59.84 27.73"/>
    <polygon class="cls-2" points="29.59 65.1 46.41 72.66 46.41 40.9 29.14 34.7 29.59 65.1"/>
    <g>
      <rect class="cls-3" x="56.72" y="18.48" width="5.56" height="12.8"/>
      <ellipse class="cls-3" cx="59.5" cy="31.28" rx="2.78" ry="1.09"/>
      <ellipse class="cls-2" cx="59.5" cy="18.48" rx="2.78" ry="1.09"/>
    </g>
    <g>
      <rect class="cls-3" x="47.2" y="24.63" width="5.56" height="7.74"/>
      <ellipse class="cls-3" cx="49.98" cy="32.37" rx="2.78" ry="1.09"/>
      <ellipse class="cls-2" cx="49.98" cy="24.63" rx="2.78" ry="1.09"/>
    </g>
    <circle class="cls-1" cx="49.36" cy="20.88" r="1.57"/>
    <circle class="cls-1" cx="43.29" cy="19.57" r="1.72"/>
    <circle class="cls-1" cx="36.55" cy="18.28" r="2.32"/>
    <path class="cls-4" d="M63.1,43.9a12.74,12.74,0,0,0-10.22,12c0,5.63,4.58,9.21,10.22,8s10.22-6.64,10.22-12S68.74,42.9,63.1,43.9ZM69.46,52A13.66,13.66,0,0,0,69,49.08,3.88,3.88,0,0,1,72,51.51Zm-1.29.26-4.43.87V48.82a13.73,13.73,0,0,1,3.76-.06A11.81,11.81,0,0,1,68.17,52.26Zm-4.43-4.7V45.12a4,4,0,0,1,3.11,2.26A16.16,16.16,0,0,0,63.75,47.56Zm-1.29-2.2V47.8a18.12,18.12,0,0,0-3.11,1A6.62,6.62,0,0,1,62.46,45.36Zm0,3.7v4.33L58,54.27a15,15,0,0,1,.67-3.84A16.07,16.07,0,0,1,62.46,49.06Zm-5.71,5.46L54.26,55a6.74,6.74,0,0,1,2.91-3.66A16.81,16.81,0,0,0,56.75,54.52Zm0,1.28a14.37,14.37,0,0,0,.42,3,3.88,3.88,0,0,1-2.91-2.5ZM58,55.54l4.43-.89V59a13.33,13.33,0,0,1-3.75.13A12.16,12.16,0,0,1,58,55.54Zm4.43,4.71v2.44a3.82,3.82,0,0,1-3.11-2.19A15.81,15.81,0,0,0,62.46,60.24Zm1.29,2.16V60a18.73,18.73,0,0,0,3.11-1.07A7,7,0,0,1,63.75,62.4Zm0-3.69V54.39l4.43-.89a14.56,14.56,0,0,1-.67,3.77A16.71,16.71,0,0,1,63.75,58.71Zm5.71-5.46,2.49-.5A6.79,6.79,0,0,1,69,56.33,16.07,16.07,0,0,0,69.46,53.25Zm1.6-4.82a8.43,8.43,0,0,0-2.53-.85,7.63,7.63,0,0,0-1.38-2.2A6.85,6.85,0,0,1,71.06,48.42Zm-12-1.58a12.36,12.36,0,0,0-1.38,2.76,13,13,0,0,0-2.53,1.85A11.63,11.63,0,0,1,59.06,46.85ZM55.15,59.5a8,8,0,0,0,2.53.84,7.49,7.49,0,0,0,1.38,2.21A6.55,6.55,0,0,1,55.15,59.5Zm12,1.3a12.63,12.63,0,0,0,1.38-2.74,13.75,13.75,0,0,0,2.53-1.86A12.13,12.13,0,0,1,67.15,60.79Z"/>
  </g>
</svg>
