<svg id="レイヤー_1" data-name="レイヤー 1" xmlns="http://www.w3.org/2000/svg" width="73mm" height="32mm" viewBox="0 0 206.93 90.71">
  <defs>
    <style>
      .cls-1 {
        fill: #1ea939;
      }

      .cls-2 {
        fill: #231815;
      }

      .cls-3 {
        fill: #595757;
      }

      .cls-4 {
        fill: #fff;
      }
    </style>
  </defs>
  <title>イラスト素材</title>
  <g>
    <g>
      <path class="cls-1" d="M91.41,58.51v2.72H105.1v1.94H91.41v7.38H89.6v-12a4.66,4.66,0,0,1,1.27-3.3,4,4,0,0,1,3.05-1.36H105.1v1.94H93.92a2.35,2.35,0,0,0-1.77.79A2.72,2.72,0,0,0,91.41,58.51Z"/>
      <path class="cls-1" d="M117.06,67.13a3.43,3.43,0,0,1-.93,2.41,3,3,0,0,1-2.25,1h-4.53a3,3,0,0,1-2.25-1,3.61,3.61,0,0,1,0-4.84,3,3,0,0,1,2.25-1h5.9V62.24a1.52,1.52,0,0,0-.39-1,1.25,1.25,0,0,0-1-.44h-7.71v-2h7.71a2.9,2.9,0,0,1,2.28,1,3.55,3.55,0,0,1,.91,2.41Zm-2.21,1a1.5,1.5,0,0,0,.4-1V65.65h-5.9a1.26,1.26,0,0,0-1,.43,1.55,1.55,0,0,0,0,2.07,1.25,1.25,0,0,0,1,.45h4.53A1.27,1.27,0,0,0,114.85,68.16Z"/>
      <path class="cls-1" d="M130.05,68.61v1.94h-7.71a3,3,0,0,1-2.25-1,3.43,3.43,0,0,1-.93-2.41V62.24a3.46,3.46,0,0,1,.93-2.43,3,3,0,0,1,2.25-1h7.71v2h-7.71a1.29,1.29,0,0,0-1,.41,1.49,1.49,0,0,0-.39,1.06v4.89a1.51,1.51,0,0,0,.39,1,1.25,1.25,0,0,0,1,.44Z"/>
      <path class="cls-1" d="M136.93,60.76v6.37a1.5,1.5,0,0,0,.4,1,1.25,1.25,0,0,0,1,.45h.9v1.94h-.9a3,3,0,0,1-2.25-1,3.44,3.44,0,0,1-.93-2.41V60.76h-3v-2h3V53.85h1.81V58.8H140v2Z"/>
      <path class="cls-1" d="M145.81,70.55a3,3,0,0,1-2.25-1,3.43,3.43,0,0,1-.93-2.41V62.24a3.46,3.46,0,0,1,.93-2.43,3,3,0,0,1,2.25-1h4.53a2.9,2.9,0,0,1,2.28,1,3.54,3.54,0,0,1,.91,2.41v4.89a3.43,3.43,0,0,1-.93,2.41,3,3,0,0,1-2.25,1Zm4.53-1.94a1.27,1.27,0,0,0,1-.44,1.49,1.49,0,0,0,.4-1V62.24a1.52,1.52,0,0,0-.39-1,1.25,1.25,0,0,0-1-.44h-4.53a1.29,1.29,0,0,0-1,.41,1.48,1.48,0,0,0-.39,1.06v4.89a1.51,1.51,0,0,0,.39,1,1.25,1.25,0,0,0,1,.44Z"/>
      <path class="cls-1" d="M166.51,58.8v2H158.8a1.27,1.27,0,0,0-1,.43,1.5,1.5,0,0,0-.39,1v8.31h-1.81V62.24a3.42,3.42,0,0,1,.93-2.42,3,3,0,0,1,2.25-1Z"/>
      <path class="cls-1" d="M180.54,58.8v3.44a3.42,3.42,0,0,1-.93,2.41,3,3,0,0,1-2.25,1H176v4.89h-1.81V65.65h-1.35a3,3,0,0,1-2.25-1,3.43,3.43,0,0,1-.93-2.41V58.8h1.81v3.44a1.52,1.52,0,0,0,.39,1,1.25,1.25,0,0,0,1,.44h4.53a1.27,1.27,0,0,0,1-.44,1.5,1.5,0,0,0,.4-1V58.8Z"/>
    </g>
    <g>
      <path class="cls-2" d="M105.25,37.07v-3h1.38a6.11,6.11,0,0,1,4.67,2.07,7.5,7.5,0,0,1,0,10,6.11,6.11,0,0,1-4.65,2.09H96.19a6.15,6.15,0,0,1-4.63-2.07,7,7,0,0,1-1.95-5V30a7.09,7.09,0,0,1,1.93-5,6.13,6.13,0,0,1,4.65-2.07h17v3h-17A3.56,3.56,0,0,0,93.5,27,4.14,4.14,0,0,0,92.37,30V41.2a4.13,4.13,0,0,0,1.12,2.93,3.56,3.56,0,0,0,2.7,1.2h10.44a3.54,3.54,0,0,0,2.7-1.22,4.16,4.16,0,0,0,1.12-2.92,4.24,4.24,0,0,0-1.1-2.87,3.47,3.47,0,0,0-2.72-1.26Z"/>
      <path class="cls-2" d="M133.76,43.09a5.21,5.21,0,0,1-1.42,3.66,4.5,4.5,0,0,1-3.43,1.54H122a4.5,4.5,0,0,1-3.43-1.54,5.21,5.21,0,0,1-1.42-3.66,5.26,5.26,0,0,1,1.42-3.7A4.5,4.5,0,0,1,122,37.86h9V35.65a2.3,2.3,0,0,0-.59-1.58,1.91,1.91,0,0,0-1.5-.67H117.18v-3h11.74A4.41,4.41,0,0,1,132.38,32a5.39,5.39,0,0,1,1.38,3.66Zm-3.37,1.58a2.26,2.26,0,0,0,.61-1.58V40.85h-9a1.93,1.93,0,0,0-1.5.65,2.37,2.37,0,0,0,0,3.15,1.9,1.9,0,0,0,1.48.69h6.89A1.92,1.92,0,0,0,130.39,44.67Z"/>
      <path class="cls-2" d="M161.21,48.29h-2.76V35.65a2.31,2.31,0,0,0-.59-1.58,1.92,1.92,0,0,0-1.5-.67,1.87,1.87,0,0,0-1.46.67,2.3,2.3,0,0,0-.59,1.58v7.44a5.21,5.21,0,0,1-1.42,3.66,4.59,4.59,0,0,1-6.85,0,5.21,5.21,0,0,1-1.42-3.66V35.65a2.3,2.3,0,0,0-.59-1.58,1.87,1.87,0,0,0-1.46-.67,1.91,1.91,0,0,0-1.5.67,2.31,2.31,0,0,0-.59,1.58V48.29h-2.76V35.65a5.26,5.26,0,0,1,1.42-3.7,4.54,4.54,0,0,1,6.79,0,5.2,5.2,0,0,1,1.44,3.72v7.44a2.28,2.28,0,0,0,.61,1.56,1.9,1.9,0,0,0,1.48.69,1.92,1.92,0,0,0,1.48-.67,2.26,2.26,0,0,0,.61-1.58V35.65a5.27,5.27,0,0,1,1.42-3.7,4.46,4.46,0,0,1,3.39-1.53A4.42,4.42,0,0,1,159.83,32a5.4,5.4,0,0,1,1.38,3.66Z"/>
      <path class="cls-2" d="M181.76,45.34v3H170a4.5,4.5,0,0,1-3.43-1.54,5.21,5.21,0,0,1-1.42-3.66V35.65a5.27,5.27,0,0,1,1.42-3.7A4.5,4.5,0,0,1,170,30.41h6.89A4.41,4.41,0,0,1,180.39,32a5.39,5.39,0,0,1,1.38,3.66,5.21,5.21,0,0,1-1.41,3.66,4.5,4.5,0,0,1-3.43,1.54h-9v2.24a2.3,2.3,0,0,0,.59,1.58,1.91,1.91,0,0,0,1.5.67Zm-13.82-9.69V37.9h9a1.92,1.92,0,0,0,1.48-.67,2.26,2.26,0,0,0,.61-1.58,2.31,2.31,0,0,0-.59-1.58,1.91,1.91,0,0,0-1.5-.67H170a2,2,0,0,0-1.5.63A2.26,2.26,0,0,0,167.94,35.65Z"/>
    </g>
    <polygon class="cls-1" points="76.79 66.57 47.53 73.23 47.53 41.47 77.69 35.72 76.79 66.57"/>
    <polygon class="cls-2" points="59.58 28.3 28.96 34.05 47.08 40.27 77.69 34.51 59.58 28.3"/>
    <polygon class="cls-2" points="29.32 65.67 46.14 73.23 46.14 41.47 28.87 35.27 29.32 65.67"/>
    <g>
      <rect class="cls-3" x="56.46" y="19.05" width="5.56" height="12.8"/>
      <ellipse class="cls-3" cx="59.24" cy="31.85" rx="2.78" ry="1.09"/>
      <ellipse class="cls-2" cx="59.24" cy="19.05" rx="2.78" ry="1.09"/>
    </g>
    <g>
      <rect class="cls-3" x="46.93" y="25.2" width="5.56" height="7.74"/>
      <ellipse class="cls-3" cx="49.71" cy="32.94" rx="2.78" ry="1.09"/>
      <ellipse class="cls-2" cx="49.71" cy="25.2" rx="2.78" ry="1.09"/>
    </g>
    <circle class="cls-1" cx="49.1" cy="21.45" r="1.57"/>
    <circle class="cls-1" cx="43.03" cy="20.14" r="1.72"/>
    <circle class="cls-1" cx="36.28" cy="18.85" r="2.31"/>
    <path class="cls-4" d="M73.81,51.65c-.09-3.24-2.53-6.27-12-4.21S50.13,53.95,50.22,57.5h0s0,.08,0,.13c.07,2.81,2.42,4.45,5.24,3.68a7.1,7.1,0,0,0,4.61-4.21h0v0l0-.05C61,54.6,62,54.53,62,54.53s1-.43,2,1.48l0,0v0h0a4,4,0,0,0,4.76,1.65c2.82-.74,5.06-3.41,5-6,0,0,0-.07,0-.11ZM58.36,56.09l-1.8.46,0,1.34v.41l-2,.52V58.4l0-1.35-1.8.46-.05-2,1.8-.45,0-1.35v-.41l2-.48v.41l0,1.34,1.81-.45Zm8.42-1.87a.78.78,0,0,1-1-.7,1.3,1.3,0,0,1,1-1.21.78.78,0,0,1,1,.7A1.31,1.31,0,0,1,66.77,54.21ZM69,55.66a.77.77,0,0,1-1-.69,1.31,1.31,0,0,1,1-1.2.78.78,0,0,1,1.05.69A1.32,1.32,0,0,1,69,55.66Zm-.11-4a.78.78,0,0,1-1-.71,1.28,1.28,0,0,1,1-1.19.79.79,0,0,1,1,.71A1.29,1.29,0,0,1,68.86,51.71ZM71,53.16a.77.77,0,0,1-1-.69,1.29,1.29,0,0,1,1-1.19A.78.78,0,0,1,72,52,1.29,1.29,0,0,1,71,53.16Z"/>
  </g>
</svg>
