<svg id="レイヤー_1" data-name="レイヤー 1" xmlns="http://www.w3.org/2000/svg" viewBox="0 0 200 130"><defs><style>.cls-1,.cls-2{fill:#0d4e7a;}.cls-2{font-size:19.14px;font-family:HiraginoUDSansStd-W3-90ms-RKSJ-H, Hiragino UD Sans Std;}.cls-3{letter-spacing:-0.06em;}.cls-4{letter-spacing:-0.12em;}.cls-5{letter-spacing:-0.14em;}.cls-6{letter-spacing:-0.08em;}.cls-7{letter-spacing:-0.01em;}</style></defs><title>イラスト素材</title><path class="cls-1" d="M80.07,33.92a7.08,7.08,0,0,0-6.77-6.77,7.08,7.08,0,0,0,6.77-6.77,7.08,7.08,0,0,0,6.77,6.77A7.08,7.08,0,0,0,80.07,33.92Z"/><path class="cls-1" d="M121.84,36.46a4.87,4.87,0,0,0-4.65-4.65,4.87,4.87,0,0,0,4.65-4.65,4.87,4.87,0,0,0,4.65,4.65A4.87,4.87,0,0,0,121.84,36.46Z"/><path class="cls-1" d="M106.8,46.41a.72.72,0,0,1-.52.16H102c-.24,0-.38-.07-.32-.16L104,42.81,99.94,45a1,1,0,0,1-.45.1h-2.3c-.16,0-.29,0-.31-.09l-1-2.2-2.61,3.58a.8.8,0,0,1-.54.16H88.6c-.23,0-.37-.07-.3-.16l4.77-6.17a.78.78,0,0,1,.53-.16h4.51c.15,0,.27,0,.29.09l1.41,3,5.5-3a.94.94,0,0,1,.42-.09h4.51c.22,0,.35.07.3.16Z"/><path class="cls-1" d="M100.39,52.44c-12.38,0-21.71-3.92-21.71-9.12S88,34.2,100.39,34.2s21.71,3.92,21.71,9.12S112.77,52.44,100.39,52.44Zm0-15.85c-11.38,0-19.32,3.55-19.32,6.73s7.93,6.73,19.32,6.73,19.32-3.55,19.32-6.73S111.77,36.59,100.39,36.59Z"/><path class="cls-1" d="M100.39,59.86c-12.38,0-21.71-3.92-21.71-9.12V43.32a1.2,1.2,0,0,1,2.39,0c0,3.18,7.93,6.73,19.32,6.73s19.32-3.55,19.32-6.73a1.2,1.2,0,0,1,2.39,0v7.42C122.1,55.94,112.77,59.86,100.39,59.86ZM81.07,47.62v3.12c0,3.18,7.93,6.73,19.32,6.73s19.32-3.55,19.32-6.73V47.62c-3.54,2.92-10.69,4.82-19.32,4.82S84.61,50.54,81.07,47.62Z"/><path class="cls-1" d="M79.88,44.52a1.2,1.2,0,0,1-1.2-1.2v-.51a1.2,1.2,0,0,1,1.2-1.2h0A1.2,1.2,0,0,1,81.1,43a1.86,1.86,0,0,0,0,.31A1.2,1.2,0,0,1,79.88,44.52Z"/><path class="cls-1" d="M120.9,44.52a1.2,1.2,0,0,1-1.2-1.2,1.86,1.86,0,0,0,0-.31,1.2,1.2,0,0,1,1.18-1.39h0a1.2,1.2,0,0,1,1.2,1.2v.51A1.2,1.2,0,0,1,120.9,44.52Z"/><path class="cls-1" d="M100.39,67.79c-12.38,0-21.71-3.92-21.71-9.12V51.25a1.2,1.2,0,0,1,2.39,0C81.07,54.43,89,58,100.39,58s19.32-3.55,19.32-6.73a1.2,1.2,0,0,1,2.39,0v7.42C122.1,63.87,112.77,67.79,100.39,67.79ZM81.07,55.55v3.12c0,3.18,7.93,6.73,19.32,6.73s19.32-3.55,19.32-6.73V55.55c-3.54,2.92-10.69,4.82-19.32,4.82S84.61,58.46,81.07,55.55Z"/><path class="cls-1" d="M79.88,52.44a1.2,1.2,0,0,1-1.2-1.2v-.51a1.2,1.2,0,0,1,1.2-1.2h0a1.2,1.2,0,0,1,1.18,1.39,1.86,1.86,0,0,0,0,.31A1.2,1.2,0,0,1,79.88,52.44Z"/><path class="cls-1" d="M120.9,52.44a1.2,1.2,0,0,1-1.2-1.2,1.86,1.86,0,0,0,0-.31,1.2,1.2,0,0,1,1.18-1.39h0a1.2,1.2,0,0,1,1.2,1.2v.51A1.2,1.2,0,0,1,120.9,52.44Z"/><path class="cls-1" d="M100.39,75.71c-12.38,0-21.71-3.92-21.71-9.12V59.17a1.2,1.2,0,0,1,2.39,0c0,3.18,7.93,6.73,19.32,6.73s19.32-3.55,19.32-6.73a1.2,1.2,0,0,1,2.39,0v7.42C122.1,71.79,112.77,75.71,100.39,75.71ZM81.07,63.47v3.12c0,3.18,7.93,6.73,19.32,6.73s19.32-3.55,19.32-6.73V63.47c-3.54,2.92-10.69,4.82-19.32,4.82S84.61,66.39,81.07,63.47Z"/><path class="cls-1" d="M79.88,60.37a1.2,1.2,0,0,1-1.2-1.2v-.51a1.2,1.2,0,0,1,1.2-1.2h0a1.2,1.2,0,0,1,1.18,1.39,2,2,0,0,0,0,.32A1.2,1.2,0,0,1,79.88,60.37Z"/><path class="cls-1" d="M120.9,60.37a1.2,1.2,0,0,1-1.2-1.2,2,2,0,0,0,0-.32,1.2,1.2,0,0,1,1.18-1.39h0a1.2,1.2,0,0,1,1.2,1.2v.51A1.2,1.2,0,0,1,120.9,60.37Z"/><rect class="cls-1" x="124.13" y="57.56" width="19.77" height="9.83" transform="translate(71.54 196.5) rotate(-90)"/><polygon class="cls-1" points="134.02 42.7 144.86 55.75 123.18 55.75 134.02 42.7"/><rect class="cls-1" x="55.92" y="57.56" width="19.77" height="9.83" transform="translate(3.32 128.28) rotate(-90)"/><polygon class="cls-1" points="65.8 42.7 76.64 55.75 54.96 55.75 65.8 42.7"/><text class="cls-2" transform="translate(17.4 109.61)"><tspan class="cls-3">ポ</tspan><tspan class="cls-4" x="18.06" y="0">イ</tspan><tspan class="cls-5" x="34.92" y="0">ン</tspan><tspan class="cls-6" x="51.46" y="0">ト</tspan><tspan class="cls-7" x="69.14" y="0">の</tspan><tspan x="88.02" y="0">価値向上</tspan></text></svg>