<svg id="レイヤー_1" data-name="レイヤー 1" xmlns="http://www.w3.org/2000/svg" viewBox="0 0 200 130"><defs><style>.cls-1,.cls-2{fill:#0d4e7a;}.cls-2{font-size:19.14px;font-family:HiraginoUDSansStd-W3-90ms-RKSJ-H, Hiragino UD Sans Std;}.cls-3{letter-spacing:-0.12em;}.cls-4{letter-spacing:-0.06em;}.cls-5{letter-spacing:-0.09em;}.cls-6{letter-spacing:-0.07em;}.cls-7{letter-spacing:-0.1em;}.cls-8{letter-spacing:-0.13em;}.cls-9{letter-spacing:0em;}</style></defs><title>イラスト素材</title><path class="cls-1" d="M142,83.08c-7,0-14.78-2.79-14.78-5.34,0-12.83,2.67-21.54,7.76-25.4a13.29,13.29,0,1,1,14.53.38c4.77,4,7.27,12.61,7.27,25C156.74,80.28,149,83.08,142,83.08ZM129.57,77.5c.88.92,5.93,3.19,12.39,3.19s11.51-2.27,12.39-3.19c0-12.77-2.72-21-7.77-23.9a1.2,1.2,0,0,1,.13-2.14,10.93,10.93,0,1,0-8.93-.23,1.2,1.2,0,0,1,0,2.15C132.52,56,129.61,64.54,129.57,77.5Z"/><path class="cls-1" d="M160.37,74.2a22.87,22.87,0,0,1-5.28-.62,1.19,1.19,0,0,1-.92-1.08c-.4-5.95-1.5-10.68-3.27-14.07a1.2,1.2,0,0,1-.08-.93,13.41,13.41,0,0,1,3.85-6.21A10.18,10.18,0,0,1,151.9,48a1.2,1.2,0,0,1,0-1.18,10.86,10.86,0,0,0,.89-9,1.2,1.2,0,0,1,.22-1.15,10.11,10.11,0,1,1,13.4,14.87c3.37,3.14,5.14,9.42,5.14,18.36C171.56,72.25,165.41,74.2,160.37,74.2Zm-3.88-2.77a20.4,20.4,0,0,0,3.88.37,16.88,16.88,0,0,0,8.79-2.17c0-9.06-2-15.15-5.56-17.16a1.2,1.2,0,0,1,.13-2.14,7.71,7.71,0,1,0-8.46-12.54,13.24,13.24,0,0,1-1,9.65,7.65,7.65,0,0,0,3.1,2.73,1.2,1.2,0,0,1,0,2.15c-1.78.88-3.18,2.72-4.18,5.46A38.35,38.35,0,0,1,156.5,71.44Z"/><path class="cls-1" d="M123.38,74.2c-5,0-11.19-2-11.19-4.24,0-9.26,1.89-15.65,5.5-18.67a10.1,10.1,0,0,1,6.07-18.17,10,10,0,0,1,8.07,4,1.2,1.2,0,0,1,.19,1.06,10.93,10.93,0,0,0-.47,3.16,10.74,10.74,0,0,0,1.29,5.13,1.2,1.2,0,0,1,0,1.08,10.12,10.12,0,0,1-3.44,4A14,14,0,0,1,133,57.7a1.2,1.2,0,0,1-.07.91c-1.72,3.37-2.79,8-3.18,13.85a1.2,1.2,0,0,1-.91,1.08A22.84,22.84,0,0,1,123.38,74.2Zm-8.79-4.57a16.88,16.88,0,0,0,8.79,2.17,20.42,20.42,0,0,0,4-.41A38.69,38.69,0,0,1,130.56,58c-.94-2.69-2.26-4.54-3.94-5.49a1.2,1.2,0,0,1,.13-2.14,7.72,7.72,0,0,0,3.7-3.26,13.26,13.26,0,0,1-.88-8.92,7.64,7.64,0,0,0-5.8-2.65,7.71,7.71,0,0,0-3.33,14.66,1.2,1.2,0,0,1,0,2.15C116.71,54.17,114.64,60.31,114.59,69.64Z"/><path class="cls-1" d="M26.24,33.92a7.08,7.08,0,0,0-6.77-6.77,7.08,7.08,0,0,0,6.77-6.77A7.08,7.08,0,0,0,33,27.15,7.08,7.08,0,0,0,26.24,33.92Z"/><path class="cls-1" d="M72.9,84a7.08,7.08,0,0,0-6.77-6.77,7.08,7.08,0,0,0,6.77-6.77,7.08,7.08,0,0,0,6.77,6.77A7.08,7.08,0,0,0,72.9,84Z"/><path class="cls-1" d="M68,36.46a4.87,4.87,0,0,0-4.65-4.65A4.87,4.87,0,0,0,68,27.15a4.87,4.87,0,0,0,4.65,4.65A4.87,4.87,0,0,0,68,36.46Z"/><path class="cls-1" d="M16.62,66.84A4.87,4.87,0,0,0,12,62.19a4.87,4.87,0,0,0,4.65-4.65,4.87,4.87,0,0,0,4.65,4.65A4.87,4.87,0,0,0,16.62,66.84Z"/><path class="cls-1" d="M53,46.41a.72.72,0,0,1-.52.16H48.12c-.24,0-.38-.07-.32-.16l2.35-3.59L46.1,45a1,1,0,0,1-.45.1h-2.3c-.16,0-.29,0-.31-.09l-1-2.2-2.61,3.58a.8.8,0,0,1-.54.16h-4.1c-.23,0-.37-.07-.3-.16l4.77-6.17a.78.78,0,0,1,.53-.16h4.51c.15,0,.27,0,.29.09l1.41,3,5.5-3a.94.94,0,0,1,.42-.09h4.51c.22,0,.35.07.3.16Z"/><path class="cls-1" d="M46.55,52.44c-12.38,0-21.71-3.92-21.71-9.12s9.33-9.12,21.71-9.12,21.71,3.92,21.71,9.12S58.93,52.44,46.55,52.44Zm0-15.85c-11.38,0-19.32,3.55-19.32,6.73s7.93,6.73,19.32,6.73,19.32-3.55,19.32-6.73S57.94,36.59,46.55,36.59Z"/><path class="cls-1" d="M46.55,59.86c-12.38,0-21.71-3.92-21.71-9.12V43.32a1.2,1.2,0,1,1,2.39,0c0,3.18,7.93,6.73,19.32,6.73s19.32-3.55,19.32-6.73a1.2,1.2,0,1,1,2.39,0v7.42C68.26,55.94,58.93,59.86,46.55,59.86ZM27.24,47.62v3.12c0,3.18,7.93,6.73,19.32,6.73s19.32-3.55,19.32-6.73V47.62c-3.54,2.92-10.69,4.82-19.32,4.82S30.77,50.54,27.24,47.62Z"/><path class="cls-1" d="M26,44.52a1.2,1.2,0,0,1-1.2-1.2v-.51a1.2,1.2,0,0,1,1.2-1.2h0A1.2,1.2,0,0,1,27.27,43a1.86,1.86,0,0,0,0,.31A1.2,1.2,0,0,1,26,44.52Z"/><path class="cls-1" d="M67.07,44.52a1.2,1.2,0,0,1-1.2-1.2,1.86,1.86,0,0,0,0-.31A1.2,1.2,0,0,1,67,41.62h0a1.2,1.2,0,0,1,1.2,1.2v.51A1.2,1.2,0,0,1,67.07,44.52Z"/><path class="cls-1" d="M46.55,67.79c-12.38,0-21.71-3.92-21.71-9.12V51.25a1.2,1.2,0,1,1,2.39,0c0,3.18,7.93,6.73,19.32,6.73s19.32-3.55,19.32-6.73a1.2,1.2,0,1,1,2.39,0v7.42C68.26,63.87,58.93,67.79,46.55,67.79ZM27.24,55.55v3.12c0,3.18,7.93,6.73,19.32,6.73s19.32-3.55,19.32-6.73V55.55c-3.54,2.92-10.69,4.82-19.32,4.82S30.77,58.46,27.24,55.55Z"/><path class="cls-1" d="M26,52.44a1.2,1.2,0,0,1-1.2-1.2v-.51a1.2,1.2,0,0,1,1.2-1.2h0a1.2,1.2,0,0,1,1.18,1.39,1.86,1.86,0,0,0,0,.31A1.2,1.2,0,0,1,26,52.44Z"/><path class="cls-1" d="M67.07,52.44a1.2,1.2,0,0,1-1.2-1.2,1.86,1.86,0,0,0,0-.31A1.2,1.2,0,0,1,67,49.55h0a1.2,1.2,0,0,1,1.2,1.2v.51A1.2,1.2,0,0,1,67.07,52.44Z"/><path class="cls-1" d="M46.55,75.71c-12.38,0-21.71-3.92-21.71-9.12V59.17a1.2,1.2,0,1,1,2.39,0c0,3.18,7.93,6.73,19.32,6.73s19.32-3.55,19.32-6.73a1.2,1.2,0,1,1,2.39,0v7.42C68.26,71.79,58.93,75.71,46.55,75.71ZM27.24,63.47v3.12c0,3.18,7.93,6.73,19.32,6.73s19.32-3.55,19.32-6.73V63.47c-3.54,2.92-10.69,4.82-19.32,4.82S30.77,66.39,27.24,63.47Z"/><path class="cls-1" d="M26,60.37a1.2,1.2,0,0,1-1.2-1.2v-.51a1.2,1.2,0,0,1,1.2-1.2h0a1.2,1.2,0,0,1,1.18,1.39,2,2,0,0,0,0,.32A1.2,1.2,0,0,1,26,60.37Z"/><path class="cls-1" d="M67.07,60.37a1.2,1.2,0,0,1-1.2-1.2,2,2,0,0,0,0-.32A1.2,1.2,0,0,1,67,57.47h0a1.2,1.2,0,0,1,1.2,1.2v.51A1.2,1.2,0,0,1,67.07,60.37Z"/><rect class="cls-1" x="79.66" y="52.5" width="19.77" height="9.83"/><polygon class="cls-1" points="109.32 57.41 96.28 68.25 96.28 46.57 109.32 57.41"/><text class="cls-2" transform="translate(8.67 109.61)"><tspan class="cls-3">イ</tspan><tspan class="cls-4" x="16.86" y="0">ン</tspan><tspan class="cls-5" x="34.83" y="0">セ</tspan><tspan class="cls-6" x="52.28" y="0">ン</tspan><tspan class="cls-7" x="69.98" y="0">テ</tspan><tspan class="cls-8" x="87.22" y="0">ィ</tspan><tspan class="cls-9" x="103.81" y="0">ブ</tspan><tspan x="122.89" y="0">／販促</tspan></text></svg>