<svg id="レイヤー_1" data-name="レイヤー 1" xmlns="http://www.w3.org/2000/svg" viewBox="0 0 200 130"><defs><style>.cls-1,.cls-2{fill:#0d4e7a;}.cls-2{font-size:19.14px;font-family:HiraginoUDSansStd-W3-90ms-RKSJ-H, Hiragino UD Sans Std;}.cls-3{letter-spacing:-0.06em;}.cls-4{letter-spacing:-0.12em;}.cls-5{letter-spacing:-0.14em;}.cls-6{letter-spacing:-0.09em;}.cls-7{letter-spacing:-0.03em;}</style></defs><title>イラスト素材</title><path class="cls-1" d="M133,36.07a20.32,20.32,0,0,1-2.17,4.7,23.39,23.39,0,0,1,2.71,2.44l-.64.78a25.91,25.91,0,0,0-2.61-2.44,15.4,15.4,0,0,1-5.39,4.5l-.52-.7A14.44,14.44,0,0,0,129.49,41a22.85,22.85,0,0,0-3.1-2l.48-.72a34.4,34.4,0,0,1,3.16,2,18.48,18.48,0,0,0,2-4.46Z"/><path class="cls-1" d="M136.16,39.41h10.53v.86h-4.62a6.61,6.61,0,0,1-3.77,6.29l-.64-.76a5.72,5.72,0,0,0,3.43-5.52h-4.93Zm1.25-3.2h7.48v.88H137.4Zm8.12-1.26a7.77,7.77,0,0,1,1.18,2.39l-.76.31a8,8,0,0,0-1.09-2.39Zm1.57-.52a9.29,9.29,0,0,1,1.26,2.32l-.76.3a12.21,12.21,0,0,0-1.18-2.33Z"/><path class="cls-1" d="M154.24,46.61h-.93V41a16.89,16.89,0,0,1-3.82,1.89l-.41-.74a16.35,16.35,0,0,0,7-4.78l.76.68a18.94,18.94,0,0,1-2.65,2.35Z"/><path class="cls-1" d="M170.63,36.92a10.32,10.32,0,0,1-3.26,4.1l-.76-.67a8.41,8.41,0,0,0,2.84-3.22h-9.23v-.88h9.84Zm-5.19,1.58v1.31a6.37,6.37,0,0,1-4.36,6.58l-.56-.78c2.79-1,3.94-2.84,3.94-5.79V38.5Z"/><path class="cls-1" d="M180.15,53.56h-65.7a1.2,1.2,0,0,1-1.2-1.2v-22a1.2,1.2,0,0,1,1.2-1.2h65.7a1.2,1.2,0,0,1,1.2,1.2v22A1.2,1.2,0,0,1,180.15,53.56Zm-64.5-2.39h63.31V31.55H115.64Z"/><path class="cls-1" d="M126.06,69.63h-1V66.2H122.5v-.86h2.61V62.77h1v2.57h4.06V62.7h1v2.64h2.69v.86h-2.69v.68c0,4.07-1.69,5.86-4.8,6.71l-.43-.82c3.09-.82,4.27-2.37,4.27-6V66.2h-4.06Z"/><path class="cls-1" d="M146.44,67.48v1H135.83v-1Z"/><path class="cls-1" d="M151,70.94c0,.83.44,1.19,2.2,1.19a26.05,26.05,0,0,0,5.13-.42l.11.93a26,26,0,0,1-5.19.39c-2.38,0-3.2-.63-3.2-1.82V63h1v4.18a18.72,18.72,0,0,0,6-2.29l.58.87A23.07,23.07,0,0,1,151,68Zm6.63-8.79A8.61,8.61,0,0,1,159,64.36l-.72.39a7.83,7.83,0,0,0-1.38-2.22Zm1.46-.76a9.69,9.69,0,0,1,1.52,2.16l-.72.4a11.53,11.53,0,0,0-1.43-2.2Z"/><path class="cls-1" d="M171.36,73.23a22.09,22.09,0,0,0-3.9-4.13,16.74,16.74,0,0,1-5.4,4l-.58-.75a14.48,14.48,0,0,0,7.69-8h-6.49v-.88h7.1l.6.7a15.49,15.49,0,0,1-2.4,4.26,28,28,0,0,1,4.25,4.13Z"/><path class="cls-1" d="M180.15,80.72h-65.7a1.2,1.2,0,0,1-1.2-1.2v-22a1.2,1.2,0,0,1,1.2-1.2h65.7a1.2,1.2,0,0,1,1.2,1.2v22A1.2,1.2,0,0,1,180.15,80.72Zm-64.5-2.39h63.31V58.71H115.64Z"/><path class="cls-1" d="M25.26,33.92a7.08,7.08,0,0,0-6.77-6.77,7.08,7.08,0,0,0,6.77-6.77A7.08,7.08,0,0,0,32,27.15,7.08,7.08,0,0,0,25.26,33.92Z"/><path class="cls-1" d="M71.92,84a7.08,7.08,0,0,0-6.77-6.77,7.08,7.08,0,0,0,6.77-6.77,7.08,7.08,0,0,0,6.77,6.77A7.08,7.08,0,0,0,71.92,84Z"/><path class="cls-1" d="M67,36.46a4.87,4.87,0,0,0-4.65-4.65A4.87,4.87,0,0,0,67,27.15a4.87,4.87,0,0,0,4.65,4.65A4.87,4.87,0,0,0,67,36.46Z"/><path class="cls-1" d="M15.64,66.84A4.87,4.87,0,0,0,11,62.19a4.87,4.87,0,0,0,4.65-4.65,4.87,4.87,0,0,0,4.65,4.65A4.87,4.87,0,0,0,15.64,66.84Z"/><path class="cls-1" d="M52,46.41a.72.72,0,0,1-.52.16H47.15c-.24,0-.38-.07-.32-.16l2.35-3.59L45.13,45a1,1,0,0,1-.45.1h-2.3c-.16,0-.29,0-.31-.09l-1-2.2-2.61,3.58a.8.8,0,0,1-.54.16h-4.1c-.23,0-.37-.07-.3-.16l4.77-6.17a.78.78,0,0,1,.53-.16H43.3c.15,0,.27,0,.29.09l1.41,3,5.5-3a.94.94,0,0,1,.42-.09h4.51c.22,0,.35.07.3.16Z"/><path class="cls-1" d="M45.58,52.44c-12.38,0-21.71-3.92-21.71-9.12S33.2,34.2,45.58,34.2s21.71,3.92,21.71,9.12S58,52.44,45.58,52.44Zm0-15.85c-11.38,0-19.32,3.55-19.32,6.73s7.93,6.73,19.32,6.73S64.9,46.51,64.9,43.32,57,36.59,45.58,36.59Z"/><path class="cls-1" d="M45.58,59.86c-12.38,0-21.71-3.92-21.71-9.12V43.32a1.2,1.2,0,1,1,2.39,0c0,3.18,7.93,6.73,19.32,6.73S64.9,46.51,64.9,43.32a1.2,1.2,0,1,1,2.39,0v7.42C67.29,55.94,58,59.86,45.58,59.86ZM26.26,47.62v3.12c0,3.18,7.93,6.73,19.32,6.73S64.9,53.92,64.9,50.74V47.62c-3.54,2.92-10.69,4.82-19.32,4.82S29.8,50.54,26.26,47.62Z"/><path class="cls-1" d="M25.07,44.52a1.2,1.2,0,0,1-1.2-1.2v-.51a1.2,1.2,0,0,1,1.2-1.2h0A1.2,1.2,0,0,1,26.29,43a1.86,1.86,0,0,0,0,.31A1.2,1.2,0,0,1,25.07,44.52Z"/><path class="cls-1" d="M66.09,44.52a1.2,1.2,0,0,1-1.2-1.2,1.88,1.88,0,0,0,0-.31A1.2,1.2,0,0,1,66,41.62h0a1.2,1.2,0,0,1,1.2,1.2v.51A1.2,1.2,0,0,1,66.09,44.52Z"/><path class="cls-1" d="M45.58,67.79c-12.38,0-21.71-3.92-21.71-9.12V51.25a1.2,1.2,0,1,1,2.39,0c0,3.18,7.93,6.73,19.32,6.73S64.9,54.43,64.9,51.25a1.2,1.2,0,1,1,2.39,0v7.42C67.29,63.87,58,67.79,45.58,67.79ZM26.26,55.55v3.12c0,3.18,7.93,6.73,19.32,6.73S64.9,61.85,64.9,58.67V55.55c-3.54,2.92-10.69,4.82-19.32,4.82S29.8,58.46,26.26,55.55Z"/><path class="cls-1" d="M25.07,52.44a1.2,1.2,0,0,1-1.2-1.2v-.51a1.2,1.2,0,0,1,1.2-1.2h0a1.2,1.2,0,0,1,1.18,1.39,1.86,1.86,0,0,0,0,.31A1.2,1.2,0,0,1,25.07,52.44Z"/><path class="cls-1" d="M66.09,52.44a1.2,1.2,0,0,1-1.2-1.2,1.88,1.88,0,0,0,0-.31A1.2,1.2,0,0,1,66,49.55h0a1.2,1.2,0,0,1,1.2,1.2v.51A1.2,1.2,0,0,1,66.09,52.44Z"/><path class="cls-1" d="M45.58,75.71c-12.38,0-21.71-3.92-21.71-9.12V59.17a1.2,1.2,0,1,1,2.39,0c0,3.18,7.93,6.73,19.32,6.73S64.9,62.36,64.9,59.17a1.2,1.2,0,1,1,2.39,0v7.42C67.29,71.79,58,75.71,45.58,75.71ZM26.26,63.47v3.12c0,3.18,7.93,6.73,19.32,6.73S64.9,69.77,64.9,66.59V63.47c-3.54,2.92-10.69,4.82-19.32,4.82S29.8,66.39,26.26,63.47Z"/><path class="cls-1" d="M25.07,60.37a1.2,1.2,0,0,1-1.2-1.2v-.51a1.2,1.2,0,0,1,1.2-1.2h0a1.2,1.2,0,0,1,1.18,1.39,2,2,0,0,0,0,.32A1.2,1.2,0,0,1,25.07,60.37Z"/><path class="cls-1" d="M66.09,60.37a1.2,1.2,0,0,1-1.2-1.2,1.84,1.84,0,0,0,0-.31A1.2,1.2,0,0,1,66,57.47h0a1.2,1.2,0,0,1,1.2,1.2v.51A1.2,1.2,0,0,1,66.09,60.37Z"/><rect class="cls-1" x="78.69" y="52.5" width="19.77" height="9.83"/><polygon class="cls-1" points="108.35 57.41 95.3 68.25 95.3 46.57 108.35 57.41"/><text class="cls-2" transform="translate(41.68 109.61)"><tspan class="cls-3">ポ</tspan><tspan class="cls-4" x="18.06" y="0">イ</tspan><tspan class="cls-5" x="34.92" y="0">ン</tspan><tspan class="cls-6" x="51.46" y="0">ト</tspan><tspan class="cls-7" x="68.85" y="0">を</tspan><tspan x="87.41" y="0">導入</tspan></text></svg>