<svg id="レイヤー_1" data-name="レイヤー 1" xmlns="http://www.w3.org/2000/svg" xmlns:xlink="http://www.w3.org/1999/xlink" width="152.5" height="47.5" viewBox="0 0 152.5 47.5">
  <defs>
    <style>
      .cls-1 {
        fill: url(#名称未設定グラデーション);
      }

      .cls-2 {
        fill: #fabf00;
      }

      .cls-3 {
        fill: #004573;
      }

      .cls-4 {
        fill: url(#名称未設定グラデーション_2);
      }

      .cls-5 {
        fill: none;
      }
    </style>
    <linearGradient id="名称未設定グラデーション" x1="18.49" y1="6.75" x2="37.3" y2="39.59" gradientTransform="matrix(1, 0, 0, -1, -4.3, 46.98)" gradientUnits="userSpaceOnUse">
      <stop offset="0" stop-color="#0a50a1"/>
      <stop offset="0.09" stop-color="#2362ab"/>
      <stop offset="0.43" stop-color="#799fce"/>
      <stop offset="0.7" stop-color="#b8cce7"/>
      <stop offset="0.9" stop-color="#dfe8f7"/>
      <stop offset="1" stop-color="#eef3fd"/>
    </linearGradient>
    <linearGradient id="名称未設定グラデーション_2" data-name="名称未設定グラデーション 2" x1="27.98" y1="4.28" x2="27.98" y2="32.74" gradientTransform="matrix(1, 0, 0, -1, 0, 45.28)" gradientUnits="userSpaceOnUse">
      <stop offset="0" stop-color="#0c3086"/>
      <stop offset="0.38" stop-color="#6d82b6"/>
      <stop offset="0.81" stop-color="#d5dbea"/>
      <stop offset="1" stop-color="#fff"/>
    </linearGradient>
  </defs>
  <title>logo</title>
  <g>
    <circle class="cls-1" cx="23.6" cy="23.8" r="19"/>
    <path class="cls-2" d="M53.9,30.5C69,13,132.5,7.8,152.3,33.2h-10c-17.8-21.6-69.8-19.8-86.6-.1Z" transform="translate(-4.3 1.7)"/>
    <g>
      <path class="cls-3" d="M79.2,18.5c-6.5,0-6.5,6.5-6.5,7.6s.5,7.3,7.2,7.3a7.22,7.22,0,0,0,4.3-1.3l.6-1.7-.3-.3A5.23,5.23,0,0,1,81,31.4c-2.2,0-4-1.8-4-5.5h8.4C85.3,25.9,86.4,18.5,79.2,18.5Zm2.3,6.1H77s-.1-4.8,2.3-4.8S81.5,24.6,81.5,24.6Z" transform="translate(-4.3 1.7)"/>
      <path class="cls-3" d="M143.8,18.5c-6.5,0-6.5,6.5-6.5,7.6s.5,7.3,7.2,7.3a7.22,7.22,0,0,0,4.3-1.3l.6-1.7-.3-.3a5.23,5.23,0,0,1-3.5,1.3c-2.2,0-4-1.8-4-5.5H150C149.9,25.9,151,18.5,143.8,18.5Zm2.3,6.1h-4.5s-.1-4.8,2.3-4.8S146.1,24.6,146.1,24.6Z" transform="translate(-4.3 1.7)"/>
      <path class="cls-3" d="M93.3,31.3c-.9-1.1-.6-7.7-.4-10.9h2.6a2.44,2.44,0,0,1-.1-.7,3.78,3.78,0,0,1,.1-.8s-1.1,0-2.6.1c0-.6.1-3.3.3-5.2l-.3-.2-4,1.8s.1.8.1,3.6a12.75,12.75,0,0,1-2-.1,3.78,3.78,0,0,1,.1.8,2.44,2.44,0,0,1-.1.7h2c0,1.9-.1,4.5-.2,8-.1,4.2,2.2,4.9,3.6,4.9a5.92,5.92,0,0,0,3.2-.8V31.3C95.7,31.4,94,32.1,93.3,31.3Z" transform="translate(-4.3 1.7)"/>
      <path class="cls-3" d="M97,33a3.81,3.81,0,0,1,1.3-.2,4.88,4.88,0,0,1,1.4.2s.8-11,1.1-13.3c0,0,4.8,9.6,6.5,13.3a1.85,1.85,0,0,1,1.2,0s5-10.9,6.4-13.6c0,0,.9,6.6,1.2,13.6a14.5,14.5,0,0,1,4.8,0s-2-13.3-2.6-20.1a7.25,7.25,0,0,1-2.4,0s-4.3,9.4-6.8,13.9c0,0-5.1-10.5-6.7-13.9a3.7,3.7,0,0,1-2.4,0S98.7,24.5,97,33Z" transform="translate(-4.3 1.7)"/>
      <path class="cls-3" d="M123.4,33a12.09,12.09,0,0,1,2.1-.2,14.1,14.1,0,0,1,2.2.2s-.5-9.6,0-14.1c0,0-1.1.1-2.1.1a14.1,14.1,0,0,1-2.2-.2A102,102,0,0,1,123.4,33Z" transform="translate(-4.3 1.7)"/>
      <path class="cls-3" d="M130.6,33a12.09,12.09,0,0,1,2.1-.2,14.1,14.1,0,0,1,2.2.2s-.7-15.7,0-22.1c0,0-1.1.1-2.1.1a14.1,14.1,0,0,1-2.2-.2S131.2,27.4,130.6,33Z" transform="translate(-4.3 1.7)"/>
      <circle class="cls-3" cx="121.3" cy="15" r="2.3"/>
      <path class="cls-3" d="M52.5,33a7.1,7.1,0,0,1,1.4-.2,4.6,4.6,0,0,1,1.3.2s-.4-7.4-.1-14.2c0,0,7.8,8.5,12.7,14.2a2.65,2.65,0,0,1,1.1-.2,3.54,3.54,0,0,1,1.2.2s-.1-13.7.5-20.2a4.6,4.6,0,0,1-1.3.2,5.85,5.85,0,0,1-1.4-.2s.3,5,.2,14c0,0-10.5-11.6-12.7-13.9a6.76,6.76,0,0,1-1.2.1,11.35,11.35,0,0,1-1.4-.1A147.88,147.88,0,0,1,52.5,33Z" transform="translate(-4.3 1.7)"/>
    </g>
    <path class="cls-4" d="M46.3,27.5h0a20.32,20.32,0,0,0,.8-5.5A19.09,19.09,0,0,0,41.4,8.5a9,9,0,0,0-1-.9h0A19.17,19.17,0,0,0,27.8,3a21.12,21.12,0,0,0-2.6.2H25a18.47,18.47,0,0,0-6,2h0a16.37,16.37,0,0,0-4.7,3.6h0a19,19,0,0,0-3,4,.1.1,0,0,1-.1.1h0A21,21,0,0,0,9.1,19h0a11.5,11.5,0,0,0-.2,3.2A19.28,19.28,0,0,0,34,40.3h0a11.21,11.21,0,0,0,1.3-.5h0a18.81,18.81,0,0,0,5.1-3.1h0a19.48,19.48,0,0,0,3.6-4h0a30.4,30.4,0,0,0,2.3-5.2Zm-8.8,10a17.92,17.92,0,0,1-7.2-.3,19.48,19.48,0,0,0,2-3c1,.2,2,.4,3,.5a15.91,15.91,0,0,0,4.4-.1A13,13,0,0,1,37.5,37.5ZM9.8,27.2a21.5,21.5,0,0,0,3.3,4.5,5.12,5.12,0,0,0,.4,2.7A17.83,17.83,0,0,1,10,28.1h0C10,28,9.9,27.7,9.8,27.2Zm0-4.5a19.48,19.48,0,0,0,4,5.6,15.56,15.56,0,0,0-.7,3,16.57,16.57,0,0,1-3.5-4.9A25.55,25.55,0,0,1,9.8,22.7ZM21.3,5.8a.37.37,0,0,0,.3-.1,4.73,4.73,0,0,0,.1,3.5,22.8,22.8,0,0,0-4.1,2.1c0-.1-.1-.3-.1-.4a5.4,5.4,0,0,1,.2-3.8A12.77,12.77,0,0,1,21.3,5.8Zm7.1-2.1A3,3,0,0,0,26.6,5a17.06,17.06,0,0,0-4.5.3A4.57,4.57,0,0,1,25,3.5h.1A11.73,11.73,0,0,1,28.4,3.7ZM11.2,17.5a6.22,6.22,0,0,1,.3-4.7h0a13.5,13.5,0,0,1,2-2.7,6.21,6.21,0,0,0,.1,3.8c.1.2.1.4.2.6a23,23,0,0,0-2.5,3.4C11.3,17.8,11.2,17.6,11.2,17.5Zm2.7-2.7a19.47,19.47,0,0,0,4.1,6q-1.2,1.65-2.4,3.6a18.92,18.92,0,0,1-4.2-6.2A17.58,17.58,0,0,1,13.9,14.8ZM26.6,7.5a3.26,3.26,0,0,1,.1-2.2,21.27,21.27,0,0,1,4.4.7,2.4,2.4,0,0,0,0,1.2v.1a26.81,26.81,0,0,0-4.5.5Q26.75,7.5,26.6,7.5Zm8-.2.1-.3a17.55,17.55,0,0,0-3.2-1.2,1.46,1.46,0,0,1,.9-.6A17.79,17.79,0,0,1,34.9,7l.2-.2a14.37,14.37,0,0,0-2.2-1.7,5,5,0,0,1,1.7.1,6.77,6.77,0,0,1,1,1.8l.2-.1a5.44,5.44,0,0,0-.9-1.6,7.71,7.71,0,0,1,1.9.8l-.6,1.1.2.1L37,6.2a5.86,5.86,0,0,1,1.7,1.3,6.27,6.27,0,0,0-1.8.1v.3a7.23,7.23,0,0,1,2-.1,5.08,5.08,0,0,1,.9,1.3,10.64,10.64,0,0,0-2.4-.9l-.1.3a18.1,18.1,0,0,1,2.6,1,1.38,1.38,0,0,1-.1,1.1c-.8-.7-1.6-1.3-2.4-1.9l-.1.2a15.45,15.45,0,0,1,2.4,1.9,1.35,1.35,0,0,1-.9.5,12.59,12.59,0,0,0-1.6-2.2l-.2.2a11.6,11.6,0,0,1,1.5,2.1,3.34,3.34,0,0,1-1.7-.1,9.89,9.89,0,0,0-.4-2l-.3.1a18.28,18.28,0,0,1,.3,1.9,10.4,10.4,0,0,1-2-.8l1-1.8-.2-.1-1,1.8a11.09,11.09,0,0,1-1.6-1.2,7.46,7.46,0,0,1,1.9-.7l-.1-.2c-.1,0-.8.3-2,.8a5.27,5.27,0,0,1-1-1.4,16.54,16.54,0,0,1,2.7.2l.1-.3a18,18,0,0,0-2.8-.2V7.3a1.7,1.7,0,0,1,0-1A9.18,9.18,0,0,1,34.6,7.3ZM45.4,19.4a18,18,0,0,1,.7,3.8,5.44,5.44,0,0,1-3.1,2c-.1,0-.2.1-.3.1a23.73,23.73,0,0,0-.3-4.7,5,5,0,0,0,2.8-1.7C45.3,19.1,45.3,19.3,45.4,19.4ZM23.2,30.2a33.41,33.41,0,0,1-7.4-5.6A31.72,31.72,0,0,1,18.1,21a30.82,30.82,0,0,0,7.2,5.4Zm2.3-4a37.58,37.58,0,0,1-7.2-5.4c1-1.3,1.9-2.4,2.9-3.5a29.93,29.93,0,0,0,6.5,4.9Zm-4.1-9.1c1.2-1.2,2.3-2.2,3.5-3.2a25.33,25.33,0,0,0,5.3,4l-2.3,4A23.37,23.37,0,0,1,21.4,17.1Zm7.3-5.9a16.93,16.93,0,0,0,3.6,2.7l-2.1,3.8A27.13,27.13,0,0,1,25,13.8C26.3,12.8,27.6,11.9,28.7,11.2Zm3.8-2a8.32,8.32,0,0,0,1.8,1.3l-1.8,3.2A13.87,13.87,0,0,1,29,11.1C30.4,10.3,31.6,9.6,32.5,9.2ZM40,11a25.17,25.17,0,0,1,3,3.5,3.22,3.22,0,0,1-2,1.3,22.4,22.4,0,0,0-2-4.1C39.4,11.4,39.8,11.2,40,11Zm.7,4.7a10.47,10.47,0,0,1-3.5-.1,21.74,21.74,0,0,0-.3-4,5.4,5.4,0,0,0,1.8,0A22.4,22.4,0,0,1,40.7,15.7Zm-8.1-1.6A17.28,17.28,0,0,0,37,15.8a39.05,39.05,0,0,1-.3,4.5,28.21,28.21,0,0,1-6.2-2.4Zm4.6,1.8a8.85,8.85,0,0,0,3.6.1,18.29,18.29,0,0,1,.8,2.5c.2.6.3,1.3.5,2.1a12.82,12.82,0,0,1-5.1-.2C37.1,18.7,37.2,17.2,37.2,15.9Zm-.2-.4a16.69,16.69,0,0,1-4.3-1.7l1.8-3.2a6.52,6.52,0,0,0,2.2.8A41,41,0,0,1,37,15.5Zm-6.7,2.6a25,25,0,0,0,6.3,2.5,41.37,41.37,0,0,1-.9,4.6,32.2,32.2,0,0,1-7.7-3Zm6.6,2.5a13.32,13.32,0,0,0,5.2.2,23.23,23.23,0,0,1,.3,4.7,15.6,15.6,0,0,1-6.4-.2C36.4,23.6,36.7,22,36.9,20.6Zm5.4-.1a16,16,0,0,0-.5-2.1,18.29,18.29,0,0,0-.8-2.5,2.87,2.87,0,0,0,2-1.3,21.35,21.35,0,0,1,2,4A4,4,0,0,1,42.3,20.5Zm-2.2-9.8h0a2,2,0,0,0,.2-1.1,12.79,12.79,0,0,1,2.8,2.1,3.57,3.57,0,0,1,0,2.5A16.4,16.4,0,0,0,40.1,10.7Zm.1-1.4a2.85,2.85,0,0,0-.8-1.4l1.2.3a10.57,10.57,0,0,1,2.2,2.9A8.7,8.7,0,0,0,40.2,9.3ZM31.3,7.5a6.53,6.53,0,0,0,1,1.5,21.41,21.41,0,0,0-3.6,1.9,11.65,11.65,0,0,1-2-2.9A29.05,29.05,0,0,1,31.3,7.5ZM28.6,11a36.24,36.24,0,0,0-3.7,2.6A12.09,12.09,0,0,1,22,9.3a18.66,18.66,0,0,1,2.2-.7L26.6,8A7.5,7.5,0,0,0,28.6,11Zm-3.9,2.8c-1.1.9-2.3,2-3.5,3.2a17,17,0,0,1-3.6-5.4,22.8,22.8,0,0,1,4.1-2.1A16.89,16.89,0,0,0,24.7,13.8ZM21,17.1a33.69,33.69,0,0,0-2.9,3.5,17.47,17.47,0,0,1-4-6,22.75,22.75,0,0,1,3.4-2.9A15.06,15.06,0,0,0,21,17.1Zm-5.4,7.8A35.92,35.92,0,0,0,23,30.5l-1.8,3.1A33.86,33.86,0,0,1,14,28.2C14.5,27.2,15,26.1,15.6,24.9Zm7.7,5.7a35.88,35.88,0,0,0,8.8,3.5,31.07,31.07,0,0,1-2,3,33.38,33.38,0,0,1-8.6-3.4Zm.1-.2,2.1-3.8A30.8,30.8,0,0,0,34.1,30a34.92,34.92,0,0,1-1.9,3.9A39.29,39.29,0,0,1,23.4,30.4Zm2.3-4.1,2.3-4a34.47,34.47,0,0,0,7.7,3.1,36.64,36.64,0,0,1-1.5,4.3A29.61,29.61,0,0,1,25.7,26.3Zm10.2-.8a16.05,16.05,0,0,0,6.5.2,23.62,23.62,0,0,1-.7,4.4,17.92,17.92,0,0,1-7.2-.3A26.83,26.83,0,0,0,35.9,25.5Zm6.8.1c.1,0,.3-.1.4-.1a5.78,5.78,0,0,0,3-1.9,14.63,14.63,0,0,1-.4,4.2A6.72,6.72,0,0,1,42,29.9,21.42,21.42,0,0,0,42.7,25.6Zm3.6-2.3c.1-.1.1-.2.2-.3l.3-.6a18.42,18.42,0,0,1-.7,4.7A15.89,15.89,0,0,0,46.3,23.3Zm0-.4a13.59,13.59,0,0,0-.7-3.5c-.1-.2-.1-.5-.2-.7v-.1a4.19,4.19,0,0,0,.5-2.2,20.93,20.93,0,0,1,.9,5.1A5.78,5.78,0,0,1,46.3,22.9Zm-1-4.5a21.35,21.35,0,0,0-2-4,3,3,0,0,0,.2-2.3,8.62,8.62,0,0,1,1.4,1.8h0l.3.6h0A4.83,4.83,0,0,1,45.3,18.4Zm-2-6.8a3.55,3.55,0,0,0-.4-.9c.4.6.8,1.1,1.2,1.7A6,6,0,0,0,43.3,11.6Zm-4.1-4a8.27,8.27,0,0,0-2-1.6l.1-.2a18.72,18.72,0,0,1,2.9,2A4.4,4.4,0,0,0,39.2,7.6ZM36.9,5.9A11,11,0,0,0,34.6,5a4.62,4.62,0,0,0-.7-.7,6.12,6.12,0,0,1,1.2.5h0l1.8.9ZM33.3,4.1a2.36,2.36,0,0,1,.9.8,5.4,5.4,0,0,0-1.8,0,11,11,0,0,0-2.9-1.2A10.49,10.49,0,0,1,33.3,4.1Zm-1.1,1a2.18,2.18,0,0,0-.9.7A22.64,22.64,0,0,0,26.9,5a3.12,3.12,0,0,1,2-1.2A12.62,12.62,0,0,1,32.2,5.1Zm-5.7.1a3.56,3.56,0,0,0-.1,2.3c0,.1,0,.2.1.2a21,21,0,0,0-2.4.6c-.7.2-1.4.4-2.2.7a4.69,4.69,0,0,1,0-3.5A34.4,34.4,0,0,1,26.5,5.2ZM17.2,11c0,.2.1.3.2.5A18.08,18.08,0,0,0,14,14.4a.9.9,0,0,1-.1-.5A6.27,6.27,0,0,1,14,9.8a19.92,19.92,0,0,1,3.3-2.4A4.89,4.89,0,0,0,17.2,11Zm-6.3,6.5a6.37,6.37,0,0,1,.2.7,13.4,13.4,0,0,0-1.4,3.6,8.57,8.57,0,0,1-.5-2.7,19.54,19.54,0,0,1,1.4-4.7A8.39,8.39,0,0,0,10.9,17.5Zm.4,1a18.92,18.92,0,0,0,4.2,6.2A15.54,15.54,0,0,0,14,28a18.36,18.36,0,0,1-4-5.8A11.74,11.74,0,0,1,11.3,18.5Zm2.7,10a40.12,40.12,0,0,0,7.1,5.4l-1.4,2.5a31.48,31.48,0,0,1-6.4-4.8A26,26,0,0,1,14,28.5Zm5.9,8.2a30.92,30.92,0,0,0,7.5,3,5.75,5.75,0,0,1-2.9,1,22.71,22.71,0,0,1-5.7-2Zm.1-.2L21.4,34a35.09,35.09,0,0,0,8.5,3.4,10.67,10.67,0,0,1-2.3,2.1A31.55,31.55,0,0,1,20,36.5Zm10.2.9a19,19,0,0,0,7,.4,18.76,18.76,0,0,1-2.8,2,15.6,15.6,0,0,1-6.4-.2A22.74,22.74,0,0,0,30.2,37.4Zm2.3-3.5A34.92,34.92,0,0,0,34.4,30a17.26,17.26,0,0,0,3.8.5,12.21,12.21,0,0,0,3.4-.2A21.39,21.39,0,0,1,40,34.2,16.17,16.17,0,0,1,32.5,33.9Zm9.4-3.6a7.66,7.66,0,0,0,3.6-1.8,12,12,0,0,1-1.3,3.1l-.6.9a6.93,6.93,0,0,1-3.3,1.7A16.06,16.06,0,0,0,41.9,30.3ZM27.7,3.3a19.27,19.27,0,0,1,2.4.1c-.4,0-.9.1-1.2.1l-1.5-.3A.37.37,0,0,0,27.7,3.3Zm-5.9,2h0c-.2.1-.4.1-.6.2a19.57,19.57,0,0,0-3.4,1.2A4.89,4.89,0,0,1,19,5.4a20.28,20.28,0,0,1,4.3-1.7A5.62,5.62,0,0,0,21.8,5.3ZM18,6.1a3,3,0,0,0-.5.7l-.1.1a16.1,16.1,0,0,0-3,2.1A19.9,19.9,0,0,1,18,6.1ZM9.7,22.2a21.2,21.2,0,0,0-.3,3.3c0-.1-.1-.3-.1-.4h0A13.33,13.33,0,0,1,9,22.3a13.4,13.4,0,0,1,.1-2A7,7,0,0,0,9.7,22.2Zm4.6,13a5,5,0,0,1-.9-3.2,27,27,0,0,0,6.2,4.6l-1.1,2a21.93,21.93,0,0,1-3.9-2.9A1.07,1.07,0,0,0,14.3,35.2ZM28.1,41c-.9,0-1.8-.1-2.8-.2a5.21,5.21,0,0,0,2.3-1.1,16.31,16.31,0,0,0,5.7.4A15,15,0,0,1,28.1,41Zm7.4-1.6a14.58,14.58,0,0,0,2.2-1.7c.5-.1,1-.3,1.5-.4A27.06,27.06,0,0,1,35.5,39.4Zm4.6-2.9a6.56,6.56,0,0,1-2.1.8,13.76,13.76,0,0,0,2.2-2.9,8.2,8.2,0,0,0,3-1.2A16.35,16.35,0,0,1,40.1,36.5Z" transform="translate(-4.3 1.7)"/>
    <path class="cls-2" d="M25.8,29.6a5,5,0,0,1,2,0s.6-8.2.8-9.9c0,0,3.6,7.1,4.8,9.9a1,1,0,0,1,.4-.1.58.58,0,0,1,.4.1S38,21.5,39,19.5c0,0,.7,4.9.9,10.1a16.25,16.25,0,0,1,3.6,0s-1.5-9.9-1.9-15a5.53,5.53,0,0,1-.9.1,4.13,4.13,0,0,1-.9-.1s-3.2,7-5.1,10.4c0,0-3.8-7.8-5-10.4a4.1,4.1,0,0,1-1.8,0S27.1,23.3,25.8,29.6Z" transform="translate(-4.3 1.7)"/>
    <path class="cls-2" d="M12.2,29.6a8,8,0,0,1,1.1-.1,5.85,5.85,0,0,1,1,.1S14,24.1,14.2,19c0,0,5.8,6.3,9.5,10.6a2.77,2.77,0,0,1,.8-.1,3.14,3.14,0,0,1,.9.1s0-10.2.3-15a4.13,4.13,0,0,1-.9.1,3.1,3.1,0,0,1-1-.2s.2,3.8.1,10.5c0,0-7.8-8.6-9.4-10.3a4.13,4.13,0,0,1-.9.1,4.54,4.54,0,0,1-1-.1A128.5,128.5,0,0,1,12.2,29.6Z" transform="translate(-4.3 1.7)"/>
    <rect class="cls-5" width="152.5" height="47.5"/>
  </g>
</svg>
